<?xml version="1.0" standalone="no"?>
<!DOCTYPE svg PUBLIC "-//W3C//DTD SVG 20010904//EN"
 "http://www.w3.org/TR/2001/REC-SVG-20010904/DTD/svg10.dtd">
<svg version="1.0" xmlns="http://www.w3.org/2000/svg"
 width="500.000000pt" height="500.000000pt" viewBox="0 0 500.000000 500.000000"
 preserveAspectRatio="xMidYMid meet">

<g transform="translate(0.000000,500.000000) scale(0.100000,-0.100000)"
fill="#000000" stroke="none">
<path d="M2673 3914 c-8 -22 10 -49 32 -49 10 0 22 7 28 16 15 24 1 49 -28 49
-15 0 -28 -7 -32 -16z m50 -9 c7 -17 -8 -29 -28 -21 -17 6 -9 36 10 36 7 0 15
-7 18 -15z"/>
<path d="M2364 3713 c5 -16 2 -23 -11 -26 -17 -4 -17 -5 0 -6 14 -1 17 -6 11
-23 -6 -20 -5 -21 10 -9 13 11 19 11 32 0 15 -12 16 -11 10 8 -5 16 -2 23 11
26 17 4 17 5 0 6 -14 1 -17 6 -11 23 6 20 5 21 -10 9 -13 -11 -19 -11 -32 0
-15 12 -16 11 -10 -8z"/>
<path d="M3014 3653 c5 -16 2 -23 -11 -26 -17 -4 -17 -5 0 -6 14 -1 17 -6 12
-23 -5 -21 -5 -21 8 -6 13 16 15 16 31 0 17 -16 18 -16 11 6 -5 16 -2 22 10
22 9 0 13 5 10 10 -4 6 -11 7 -17 4 -6 -4 -8 1 -3 15 3 12 2 21 -3 21 -6 0
-12 -6 -15 -12 -3 -10 -8 -9 -22 2 -16 14 -17 13 -11 -7z"/>
<path d="M2398 3522 c-220 -92 -298 -129 -298 -142 0 -10 25 -28 70 -50 l70
-34 0 -71 c0 -40 -3 -75 -7 -79 -4 -3 -8 -29 -10 -56 -3 -49 -2 -50 27 -50 29
0 30 1 27 50 -2 27 -6 53 -10 56 -8 8 -10 134 -2 134 3 0 24 -9 45 -20 l40
-20 0 -155 0 -154 32 -17 c42 -22 166 -43 253 -44 l70 0 -37 -25 c-42 -28 -52
-52 -43 -96 9 -40 45 -62 92 -56 52 6 494 202 516 228 23 28 22 60 -3 87 -24
26 -63 28 -113 7 -20 -8 -39 -15 -42 -15 -3 0 -4 55 -3 123 l3 122 117 60 c77
39 118 66 118 76 0 12 -82 51 -303 143 -166 69 -305 126 -307 125 -3 -1 -139
-57 -302 -127z m480 -378 l172 86 0 -120 c0 -120 0 -121 -26 -130 -38 -15 -49
-12 -31 8 20 22 22 43 5 60 -31 31 -68 1 -68 -53 0 -15 -4 -24 -10 -20 -5 3
-10 1 -10 -4 0 -20 -49 -11 -64 11 -13 18 -16 19 -16 6 0 -20 29 -38 60 -38
37 0 13 -16 -67 -45 -73 -26 -85 -27 -188 -21 -115 6 -214 27 -252 52 -22 14
-23 20 -23 154 l0 140 173 -86 172 -86 173 86z m120 -117 c2 -10 -4 -27 -14
-38 -9 -10 -13 -19 -8 -19 5 0 2 -4 -6 -9 -8 -6 -18 -7 -22 -5 -10 6 -11 56
-2 79 9 21 48 15 52 -8z m210 -23 c24 -17 30 -67 10 -81 -11 -7 -179 -83 -184
-83 -1 0 1 11 4 25 5 26 -21 75 -39 75 -5 0 -3 -10 5 -22 9 -12 16 -29 16 -38
0 -8 -8 1 -18 20 -11 20 -15 39 -10 45 7 8 170 73 188 74 3 1 16 -6 28 -15z
m-204 -134 c4 -14 3 -30 -1 -36 -5 -6 -46 -28 -93 -49 -136 -59 -126 -58 -122
-21 3 24 -3 41 -22 63 l-25 30 107 40 107 41 22 -22 c12 -11 24 -32 27 -46z"/>
<path d="M2839 3023 c-13 -17 -13 -17 6 -3 11 8 22 16 24 17 2 2 0 3 -6 3 -6
0 -17 -8 -24 -17z"/>
<path d="M2037 3564 c-25 -25 8 -70 43 -59 32 10 24 59 -10 63 -14 2 -29 0
-33 -4z m48 -25 c0 -7 -8 -15 -17 -17 -18 -3 -25 18 -11 32 10 10 28 1 28 -15z"/>
<path d="M3407 3564 c-25 -25 8 -70 43 -59 32 10 24 59 -10 63 -14 2 -29 0
-33 -4z m48 -25 c0 -7 -8 -15 -17 -17 -18 -3 -25 18 -11 32 10 10 28 1 28 -15z"/>
<path d="M3323 3113 c4 -15 0 -23 -9 -23 -8 0 -14 -4 -14 -10 0 -5 7 -10 15
-10 10 0 12 -6 8 -17 -6 -16 -5 -17 12 -3 14 11 19 12 22 3 3 -7 9 -13 15 -13
5 0 7 9 3 19 -4 14 0 21 12 24 17 4 17 5 0 6 -14 1 -17 6 -12 24 7 21 6 21
-11 5 -16 -16 -18 -16 -31 0 -13 16 -14 15 -10 -5z"/>
<path d="M2074 2996 c-3 -8 -4 -23 -2 -33 5 -25 61 -25 66 0 7 37 -51 67 -64
33z m45 -32 c-9 -11 -15 -12 -25 -3 -11 9 -12 15 -3 25 9 11 15 12 25 3 11 -9
12 -15 3 -25z"/>
<path d="M3270 2504 l0 -286 183 4 c155 3 188 6 221 22 53 27 76 68 76 138 0
64 -26 106 -80 128 l-31 13 31 19 c66 40 76 141 19 197 -39 40 -100 51 -274
51 l-145 0 0 -286z m290 163 c19 -10 25 -20 25 -47 0 -45 -28 -60 -117 -60
l-68 0 0 60 0 60 68 0 c37 0 78 -6 92 -13z m20 -220 c19 -9 26 -22 28 -49 5
-54 -22 -68 -125 -68 l-83 0 0 65 0 65 78 0 c42 0 88 -6 102 -13z"/>
<path d="M400 2500 l0 -280 35 0 35 0 2 238 3 237 91 -235 c89 -230 92 -235
121 -238 l30 -3 88 231 c49 127 91 233 94 235 3 1 5 -102 3 -231 l-3 -234 40
0 41 0 0 280 0 280 -58 0 -57 0 -84 -222 c-47 -123 -87 -226 -90 -230 -4 -4
-45 95 -92 220 l-86 227 -57 3 -56 3 0 -281z"/>
<path d="M2042 2748 c3 -29 7 -33 36 -36 31 -3 32 -2 32 32 0 35 -1 36 -36 36
-34 0 -35 -1 -32 -32z"/>
<path d="M2260 2690 l0 -60 -40 0 c-36 0 -40 -2 -40 -25 0 -22 4 -25 40 -25
l40 0 0 -168 c0 -193 4 -202 77 -202 56 0 73 8 73 34 0 20 -4 22 -32 18 -52
-8 -58 12 -58 175 l0 143 45 0 c41 0 45 2 45 25 0 23 -4 25 -45 25 l-45 0 0
60 0 60 -30 0 -30 0 0 -60z"/>
<path d="M4450 2690 l0 -60 -40 0 -40 0 0 -40 0 -40 40 0 40 0 0 -135 c0 -77
5 -144 11 -158 15 -32 49 -47 107 -47 80 0 92 7 92 51 0 37 0 38 -42 41 l-43
3 -3 123 -3 122 46 0 45 0 0 40 0 40 -45 0 -45 0 0 60 0 60 -60 0 -60 0 0 -60z"/>
<path d="M4284 2691 c-63 -41 -113 -90 -189 -186 -26 -33 -49 -62 -51 -64 -2
-2 -18 13 -37 33 -36 37 -55 43 -88 26 -25 -14 -24 -36 1 -43 13 -3 33 -33 59
-90 21 -46 43 -87 49 -91 5 -3 36 38 68 92 72 122 147 221 218 292 31 30 56
58 56 62 0 17 -29 6 -86 -31z"/>
<path d="M3935 2671 c-121 -55 -185 -205 -140 -331 80 -227 413 -228 490 -1
18 53 19 119 3 172 -13 44 -18 47 -41 22 -13 -15 -14 -26 -5 -63 18 -80 -19
-168 -93 -217 -36 -24 -53 -28 -110 -28 -59 0 -73 4 -111 30 -92 66 -119 189
-61 283 46 75 150 119 222 94 25 -9 32 -7 51 13 l21 23 -32 11 c-49 17 -148
13 -194 -8z"/>
<path d="M1260 2642 c-54 -6 -72 -14 -110 -48 -21 -19 -44 -52 -51 -71 -19
-58 -14 -164 9 -209 39 -75 87 -104 177 -104 128 0 194 73 195 213 0 95 -34
166 -95 200 -24 13 -91 23 -125 19z m95 -64 c39 -30 55 -76 55 -155 0 -83 -22
-130 -71 -155 -44 -23 -76 -23 -117 2 -44 27 -62 74 -62 160 0 78 14 116 56
149 36 29 102 28 139 -1z"/>
<path d="M1758 2640 c-20 -4 -53 -19 -72 -34 l-36 -27 0 25 c0 23 -4 26 -35
26 l-35 0 0 -205 0 -205 35 0 35 0 0 135 c0 182 22 230 107 242 32 4 45 0 69
-20 l29 -25 3 -166 3 -166 36 0 35 0 -4 168 c-5 211 -13 231 -103 251 -16 4
-47 4 -67 1z"/>
<path d="M2654 2644 c-5 -1 -26 -5 -47 -9 -89 -15 -143 -105 -135 -227 8 -128
62 -189 173 -196 81 -5 125 10 168 58 83 91 66 282 -30 341 -33 21 -105 39
-129 33z m80 -65 c43 -34 60 -76 60 -154 0 -102 -36 -160 -106 -171 -95 -16
-153 60 -146 192 4 79 23 118 69 141 37 19 93 16 123 -8z"/>
<path d="M3105 2629 c-11 -6 -32 -25 -47 -42 l-28 -31 0 37 c0 36 -1 37 -35
37 l-35 0 0 -205 0 -205 35 0 35 0 0 129 c0 178 19 219 111 242 36 9 49 18 49
31 0 14 -8 18 -32 18 -18 0 -42 -5 -53 -11z"/>
<path d="M2040 2425 l0 -205 35 0 35 0 0 205 0 205 -35 0 -35 0 0 -205z"/>
</g>
</svg>
