<?xml version="1.0" standalone="no"?>
<!DOCTYPE svg PUBLIC "-//W3C//DTD SVG 20010904//EN"
 "http://www.w3.org/TR/2001/REC-SVG-20010904/DTD/svg10.dtd">
<svg version="1.0" xmlns="http://www.w3.org/2000/svg"
 width="500.000000pt" height="500.000000pt" viewBox="0 0 500.000000 500.000000"
 preserveAspectRatio="xMidYMid meet">

<g transform="translate(0.000000,500.000000) scale(0.100000,-0.100000)"
fill="#000000" stroke="none">
<path d="M0 2500 l0 -2500 2500 0 2500 0 0 2500 0 2500 -2500 0 -2500 0 0
-2500z m2735 1409 c14 -42 -45 -66 -61 -24 -10 25 4 45 30 45 16 0 27 -7 31
-21z m-340 -200 c3 6 11 11 17 11 7 0 6 -6 -2 -15 -10 -13 -9 -15 11 -16 23
-2 23 -2 2 -6 -15 -3 -20 -9 -16 -21 5 -14 3 -15 -7 -5 -11 10 -16 9 -27 -5
-13 -15 -13 -15 -8 6 5 17 2 22 -12 23 -17 1 -17 2 0 6 13 3 16 11 12 26 -6
21 -5 21 9 4 9 -12 16 -14 21 -8z m655 -56 c10 10 12 9 7 -5 -4 -13 -1 -18 11
-19 16 -1 16 -2 0 -6 -11 -3 -15 -10 -11 -21 5 -14 3 -15 -7 -5 -11 10 -16 9
-27 -5 -13 -15 -13 -15 -8 6 5 17 2 22 -12 23 -17 1 -17 2 0 6 13 3 16 11 12
26 -6 20 -5 21 8 5 11 -14 16 -15 27 -5z m39 -168 c136 -58 216 -97 216 -106
0 -8 -53 -41 -122 -77 l-123 -63 0 -119 c0 -134 -3 -130 72 -103 56 20 92 9
108 -32 17 -46 -3 -73 -82 -109 -256 -117 -428 -186 -459 -186 -40 0 -64 20
-74 61 -8 34 17 85 46 94 34 11 2 25 -58 25 -67 0 -193 24 -232 45 l-31 16 0
152 0 153 -39 22 c-21 12 -42 22 -46 22 -8 0 1 -163 11 -212 6 -26 4 -28 -26
-28 -31 0 -32 1 -26 33 3 17 9 75 12 127 l7 95 -72 35 c-47 22 -71 39 -69 49
2 9 120 64 302 142 l300 127 84 -36 c46 -19 182 -76 301 -127z m-994 50 c0
-25 -4 -30 -24 -30 -32 0 -49 28 -31 50 7 9 23 15 34 13 16 -2 21 -10 21 -33z
m1369 13 c8 -14 7 -21 -6 -34 -30 -30 -75 9 -48 42 16 18 39 15 54 -8z m-105
-435 c12 10 14 9 8 -5 -4 -13 -1 -18 11 -19 15 -1 15 -2 -1 -6 -13 -3 -16 -11
-12 -26 5 -17 4 -18 -4 -8 -8 13 -12 13 -27 0 -16 -12 -17 -12 -11 4 4 12 1
17 -11 17 -15 1 -15 2 -1 13 9 7 14 19 11 27 -4 12 -2 13 9 3 10 -10 16 -10
28 0z m-1229 -118 c20 -24 3 -57 -28 -53 -30 3 -41 30 -22 53 16 19 34 19 50
0z m1456 -216 c29 -8 54 -23 74 -46 26 -29 30 -42 30 -89 0 -51 -3 -59 -36
-92 -20 -20 -31 -38 -25 -40 30 -10 72 -57 82 -92 25 -82 -23 -166 -106 -189
-22 -6 -104 -11 -182 -11 l-143 0 0 285 0 285 131 0 c71 0 150 -5 175 -11z
m-2987 -231 c47 -125 88 -224 92 -220 3 4 44 107 90 230 l84 222 57 0 58 0 0
-280 0 -280 -35 0 -35 0 0 236 c0 129 -4 233 -8 230 -5 -3 -49 -109 -97 -236
l-89 -231 -30 3 c-28 3 -31 10 -120 238 l-91 235 -3 -237 -2 -238 -35 0 -35 0
0 280 0 281 56 -3 57 -3 86 -227z m1511 196 c0 -34 -1 -35 -32 -32 -29 3 -33
7 -36 36 -3 31 -2 32 32 32 35 0 36 -1 36 -36z m210 -54 l0 -60 45 0 c41 0 45
-2 45 -25 0 -23 -4 -25 -45 -25 l-45 0 0 -143 c0 -163 6 -183 58 -175 28 4 32
2 32 -18 0 -26 -17 -34 -73 -34 -73 0 -77 9 -77 202 l0 168 -40 0 c-36 0 -40
3 -40 25 0 23 4 25 40 25 l40 0 0 60 0 60 30 0 30 0 0 -60z m2170 0 l0 -60 45
0 c41 0 45 -2 45 -25 0 -23 -4 -25 -45 -25 l-45 0 0 -149 c0 -165 5 -178 60
-166 27 6 30 4 30 -19 0 -21 -7 -27 -40 -36 -44 -12 -75 -7 -102 18 -16 13
-18 36 -18 184 l0 168 -40 0 c-36 0 -40 3 -40 25 0 23 4 25 40 25 l40 0 0 60
0 60 35 0 35 0 0 -60z m-194 -50 c-81 -86 -172 -212 -226 -313 -14 -26 -30
-47 -35 -47 -6 0 -29 37 -50 81 -22 45 -51 90 -64 100 -19 16 -21 22 -11 34
23 27 65 18 100 -21 17 -20 35 -33 39 -28 4 5 31 39 60 76 83 107 207 206 260
208 7 0 -25 -41 -73 -90z m-167 39 c31 -11 31 -12 14 -31 -14 -16 -25 -18 -66
-13 -109 15 -212 -51 -236 -153 -23 -94 29 -202 116 -238 89 -38 205 -4 254
74 36 56 45 102 32 158 -9 36 -7 46 7 59 23 21 27 19 39 -16 14 -40 14 -122 1
-170 -13 -47 -81 -124 -134 -152 -58 -30 -174 -31 -231 0 -83 44 -134 121
-142 213 -14 154 99 280 252 280 34 0 76 -5 94 -11z m-2762 -50 c73 -27 113
-100 113 -204 0 -143 -66 -215 -196 -215 -128 0 -196 77 -195 221 0 93 35 158
106 197 26 15 135 15 172 1z m496 0 c51 -23 60 -60 65 -241 l5 -168 -36 0 -36
0 -3 166 -3 166 -29 25 c-24 20 -37 24 -69 20 -85 -12 -107 -60 -107 -242 l0
-135 -35 0 -35 0 0 205 0 205 35 0 c31 0 35 -3 35 -25 l0 -25 42 30 c33 24 51
30 94 30 29 0 64 -5 77 -11z m913 -14 c103 -60 123 -250 37 -345 -43 -48 -87
-63 -168 -58 -108 7 -164 68 -173 188 -5 79 10 138 45 181 36 43 76 58 152 59
51 0 73 -5 107 -25z m414 6 c0 -15 -10 -21 -40 -26 -22 -4 -51 -16 -66 -28
-44 -34 -54 -74 -54 -217 l0 -130 -35 0 -35 0 0 205 0 205 35 0 c34 0 35 -1
35 -42 l1 -43 15 28 c31 57 144 94 144 48z m-1080 -196 l0 -205 -35 0 -35 0 0
205 0 205 35 0 35 0 0 -205z"/>
<path d="M2685 3910 c-4 -7 -3 -16 3 -22 14 -14 45 -2 40 15 -6 16 -34 21 -43
7z"/>
<path d="M2047 3546 c-8 -20 20 -43 35 -28 14 14 3 42 -16 42 -7 0 -16 -6 -19
-14z"/>
<path d="M3414 3545 c-7 -18 3 -35 21 -35 15 0 28 27 19 41 -8 14 -34 11 -40
-6z"/>
<path d="M2085 2980 c-4 -7 -3 -16 3 -22 14 -14 45 -2 40 15 -6 16 -34 21 -43
7z"/>
<path d="M3350 2635 l0 -85 104 0 c95 0 107 2 131 23 21 17 27 32 27 62 0 30
-6 45 -27 62 -24 21 -36 23 -131 23 l-104 0 0 -85z"/>
<path d="M3352 2383 l3 -98 60 -3 c103 -6 165 6 197 38 36 37 38 87 4 127 -24
27 -27 28 -145 31 l-122 4 3 -99z"/>
<path d="M1216 2579 c-14 -11 -33 -34 -41 -49 -19 -37 -20 -160 -1 -205 17
-40 68 -75 111 -75 43 0 94 35 111 75 18 44 18 156 0 199 -30 73 -122 101
-180 55z"/>
<path d="M2595 2578 c-38 -30 -55 -76 -55 -153 0 -85 26 -140 78 -162 115 -48
204 66 172 221 -15 74 -61 116 -124 116 -29 0 -52 -7 -71 -22z"/>
</g>
</svg>
