<?xml version="1.0" encoding="UTF-8"?>
<svg version="1.1" viewBox="0 0 1600 1600" width="1280" height="1280" xmlns="http://www.w3.org/2000/svg">
<path transform="translate(0)" d="m0 0h1600v1600h-1600v-1600z" fill="#000100"/>
<path transform="translate(871 438)" d="m0 0c2.63 1.08 5.22 2.23 7.8 3.42 1.87 0.833 3.74 1.66 5.62 2.49 0.902 0.402 1.8 0.804 2.73 1.22 4.12 1.8 8.32 3.38 12.5 4.93 3.21 1.26 6.34 2.64 9.49 4.05 12.3 5.52 24.7 10.9 37.3 15.8 3.88 1.57 7.66 3.31 11.4 5.07 4.2 1.86 8.51 3.43 12.8 5.01 2.86 1.17 5.32 2.6 7.95 4.21 1.87 0.723 3.75 1.44 5.64 2.12 7.78 2.88 15.4 6.28 22.9 9.76 2.47 1.11 4.96 2.12 7.47 3.11 2.8 1.16 5.59 2.33 8.38 3.5 2.7 1.11 5.4 2.2 8.11 3.27 0.767 0.306 1.53 0.612 2.32 0.927 1.52 0.606 3.05 1.21 4.57 1.8 5.39 2.16 5.39 2.16 7.61 5.5l-2 1-2-1c-0.371 0.893-0.371 0.893-0.75 1.8-1.44 2.53-2.88 3.65-5.25 5.32-2.19 1.55-4.1 2.97-6 4.88-0.606 0.146-1.21 0.291-1.84 0.441-2.69 0.694-4.5 1.93-6.79 3.5-1.16 0.787-1.16 0.787-2.35 1.59-2.11 1.46-2.11 1.46-4.02 3.47-1.63 0.583-3.28 1.1-4.94 1.56-0.875 0.249-1.75 0.498-2.65 0.754-1.19 0.338-1.19 0.338-2.41 0.684l-3 1v2c-0.855 0.398-1.71 0.797-2.59 1.21-1.1 0.53-2.21 1.06-3.35 1.61-1.1 0.522-2.2 1.04-3.34 1.58-3.01 1.37-3.01 1.37-3.72 4.61l2 1c-3.47 0.495-3.47 0.495-7 1-0.149 2.07-0.149 2.07 1 4 2.02 1.13 2.02 1.13 4 2l-3.38 1.69c-2.78 1.57-3.53 2.13-5.06 5.06-0.186 0.743-0.371 1.48-0.562 2.25h-2v10h-2c0.00222 0.751 0.00444 1.5 0.00673 2.28 0.0201 7.09 0.0353 14.2 0.0451 21.3 0.00521 3.65 0.0123 7.29 0.0236 10.9 0.0109 3.52 0.0169 7.04 0.0194 10.6 0.00274 1.99 0.0105 3.98 0.0184 5.97 1.13e-4 1.83 1.13e-4 1.83 2.29e-4 3.7 0.00222 1.07 0.00444 2.14 0.00673 3.24-0.122 3.09-0.547 6-1.12 9.04-2.15 0.772-4.29 1.54-6.44 2.31-0.638 0.229-1.28 0.459-1.93 0.695-3.55 1.27-7.1 2.48-10.7 3.62-2.53 0.82-4.32 1.61-6.62 3-2.76 1.64-5.15 2.01-8.31 2.38v4c-1.32-0.33-2.64-0.66-4-1h3v-2c-0.99 0.33-1.98 0.66-3 1 0-3 0-3 2-6-0.763-0.144-1.53-0.289-2.31-0.438-2.69-0.562-2.69-0.562-5.69-1.56v7h2v2c-3.12 1.31-6.25 2.59-9.38 3.88-1.31 0.547-1.31 0.547-2.64 1.11-5.92 2.41-11.7 4-18 5.02v2c-3.63 0.99-7.26 1.98-11 3 3.85 2.3 3.85 2.3 8 2v-3c5.44-0.99 5.44-0.99 11-2v-2c0.875 0.0464 1.75 0.0928 2.65 0.141 3.57-0.15 5.68-0.901 8.91-2.39 8.17-3.57 16.4-7.11 25.4-6.75v-3c4.33 0.305 7.79 0.881 11.1 3.89 4.98 6.27 7.44 12.6 9.95 20.1 0.33 0.33 0.66 0.66 1 1-0.148-6.56-1.06-11-4.94-16.4-1.06-1.59-1.06-1.59-1.06-3.59-0.866-0.34-0.866-0.34-1.75-0.688-2.82-1.64-4.33-3.71-6.25-6.31 7.37-3.67 15-6.46 22.7-9.12 4.91-1.68 9.77-3.44 14.6-5.3 1.07-0.408 2.13-0.817 3.23-1.24 2.07-0.798 4.14-1.6 6.2-2.42 12.7-4.87 12.7-4.87 19.8-3 4.75 2.36 9.38 7 11.1 12.1 0.984 6.32 0.866 13.8-0.688 20-2.06 2.56-2.06 2.56-4 4-0.99-0.33-1.98-0.66-3-1-0.33 0.66-0.66 1.32-1 2v-2c-5.56 1.77-11 3.76-16.4 5.96-3.66 1.46-7.37 2.79-11.1 4.11-0.839 0.307-1.68 0.614-2.54 0.93-0.911 0.327-1.82 0.655-2.76 0.992-2.4 0.795-2.4 0.795-3.24 3.01-1.99 0.708-3.99 1.37-6 2-3.06 1.29-6.1 2.62-9.14 3.96-4.65 2.04-4.65 2.04-6.86 2.04-0.33 1.32-0.66 2.64-1 4h2c0.33-0.66 0.66-1.32 1-2 0.99 0.33 1.98 0.66 3 1-7.57 4.67-15.8 7.98-24 11.4-0.647 0.275-1.29 0.55-1.96 0.833-4.69 1.91-4.69 1.91-8.04 0.792 2.64-1.32 5.28-2.64 8-4v-2c-0.822 0.387-1.64 0.773-2.49 1.17-6.02 2.81-12 5.48-18.2 7.89-2.89 1.19-5.64 2.58-8.42 4-5.64 2.84-11.5 4.89-17.5 6.87-2.66 0.951-2.66 0.951-4.36 4.06v-2c-0.99 0.33-1.98 0.66-3 1-0.942-3.9-1.02-7.38-0.875-11.4 0.0642-9.49-3.63-15.8-9.88-22.9-3.45-3.39-6.52-3.52-11.2-3.69 0.33-0.99 0.66-1.98 1-3 2.94-0.949 2.94-0.949 6.56-1.69 1.8-0.377 1.8-0.377 3.63-0.762 1.39-0.273 1.39-0.273 2.81-0.551-0.33-0.66-0.66-1.32-1-2 0.33-0.33 0.66-0.66 1-1-0.625 0.0105-1.25 0.0209-1.89 0.0317-101 1.44-101 1.44-126-19.9-2.94-5.02-2.35-9.99-2.25-15.7 0.00566-1.21 0.0113-2.43 0.0172-3.68 0.0224-3.87 0.0726-7.74 0.123-11.6 0.0201-2.63 0.0383-5.25 0.0547-7.88 0.0441-6.44 0.111-12.9 0.195-19.3-0.66-0.33-1.32-0.66-2-1v-13h-2v-19c4-2 4-2 6.79-1.35 3.63 1.52 7.15 3.19 10.7 4.98 0.7 0.353 1.4 0.705 2.12 1.07 5.24 2.66 10.4 5.43 15.6 8.23 5.1 2.73 10.3 5.2 15.6 7.64 6.44 3 12.6 6.19 18.7 9.86 6.93 4.53 6.93 4.53 14.7 6.57 1.45-4.54 2.24-8.18 2-13-0.728-0.282-1.46-0.565-2.21-0.855-2.56-1.05-5.01-2.2-7.48-3.46-1.15-0.582-1.15-0.582-2.32-1.18-0.986-0.499-1.97-0.998-2.99-1.51-1.09-0.537-1.09-0.537-2.2-1.08-6.11-3.02-12.1-6.24-18-9.54-11.1-6.1-22.4-11.8-33.8-17.4-2.81-1.39-5.63-2.79-8.44-4.19-0.64-0.319-1.28-0.637-1.94-0.966-5.04-2.52-10-5.17-15-7.84-7.77-4.17-15.7-8.05-23.6-12-6.06-3.01-12-6.17-18-9.34-0.795-0.42-1.59-0.84-2.41-1.27-0.775-0.41-1.55-0.82-2.35-1.24-2.26-1.17-4.55-2.28-6.84-3.38-3.47-1.81-3.47-1.81-4.47-3.81-2.53-0.656-2.53-0.656-5-1l3-1v-2h7c-0.99 0.99-1.98 1.98-3 3 3.42-1.4 6.83-2.79 10.2-4.19 1.01-0.412 2.02-0.824 3.06-1.25 5.18-2.12 10.4-4.26 15.5-6.44 13.6-5.64 13.6-5.64 20.2-5.12v-3c13.7-7.12 13.7-7.12 20.8-9.27 3.49-1.17 6.76-2.79 10.1-4.34 6.85-3.08 13.9-5.75 20.9-8.48 4.1-1.62 8.14-3.31 12.1-5.16 7.55-3.48 15.2-6.64 22.9-9.85 1.76-0.735 3.52-1.47 5.28-2.21 4.78-2 9.57-3.97 14.4-5.93 0.988-0.403 1.98-0.806 2.99-1.22 1.99-0.809 3.97-1.62 5.96-2.42 1.38-0.561 1.38-0.561 2.78-1.13 0.824-0.335 1.65-0.67 2.5-1.01 2.28-0.937 2.28-0.937 4.39-2.07 3.75-1.78 7.34-1.42 11.2-0.129z" fill="#FAFBFC"/>
<path transform="translate(1059 707)" d="m0 0c1.22-0.00263 1.22-0.00263 2.47-0.00531 2.7-0.00441 5.4-0.00148 8.1 0.00189 1.88-6.74e-4 3.76-0.00164 5.64-0.0029 3.95-0.00148 7.89 6.73e-4 11.8 0.00534 5.04 0.00567 10.1 0.00243 15.1-0.00357 3.89-0.00363 7.77-0.00246 11.7 1.28e-4 1.86 6.64e-4 3.71-1.41e-4 5.57-0.00248 2.61-0.00256 5.22 0.00136 7.82 0.0069 1.14-0.00304 1.14-0.00304 2.3-0.00613 7.07 0.0275 14 0.204 20.5 3.14 0.643 0.182 1.29 0.364 1.95 0.551 11 3.13 18.5 9.73 24.2 19.5 6.32 11.8 6.74 26.4 3.2 39.2-1.9 5.36-4.23 8.94-8.38 12.8h-2c-0.227 0.577-0.454 1.15-0.688 1.75-1.71 2.92-3.49 4.39-6.31 6.25-3.31 0.75-3.31 0.75-6 1v3c0.664 0.182 1.33 0.364 2.01 0.551 9.11 2.59 9.11 2.59 13 5.45 0.603 0.437 1.21 0.874 1.83 1.32 8.41 6.63 14.7 17 16.2 27.7 1.11 15.3 0.0824 29.4-9.37 42.1-6.02 6.86-13 11-21.6 13.9-1.07 0.392-2.14 0.784-3.25 1.19-6.52 1.93-13.1 2.12-19.8 2.36-1.12 0.0418-2.25 0.0837-3.4 0.127-14.6 0.489-29.1 0.51-43.7 0.508-4.08-1.04e-4 -8.15 0.0138-12.2 0.0308-3.17 0.0111-6.34 0.0131-9.51 0.0126-1.51 0.00118-3.01 0.00559-4.52 0.0133-2.08 0.00974-4.16 0.00695-6.23 8.95e-4 -1.77 0.00214-1.77 0.00214-3.57 0.00432-2.76-0.247-2.76-0.247-4.76-2.25-0.249-2.99-0.249-2.99-0.247-6.9-0.00241-0.718-0.00483-1.44-0.00732-2.18-0.00566-2.42 0.00304-4.84 0.0116-7.26-0.00107-1.73-0.00301-3.46-0.00575-5.19-0.00486-4.71 0.00282-9.41 0.013-14.1 0.00876-4.92 0.00702-9.84 0.00664-14.8 9.37e-4 -8.26 0.00963-16.5 0.0233-24.8 0.0157-9.56 0.021-19.1 0.0203-28.7-6.1e-4 -9.18 0.00449-18.4 0.0128-27.6 0.00354-3.91 0.00536-7.83 0.00589-11.7 1e-3 -4.61 0.0071-9.21 0.0172-13.8 0.00293-1.69 0.00415-3.39 0.00357-5.08-4.89e-4 -2.31 0.00515-4.61 0.0124-6.92 0.00168-1.29 0.00335-2.59 0.00508-3.92 0.129-3.11 0.129-3.11 1.13-6.11 3.71-1.24 7.14-1.14 11-1.13z" fill="#DEDFE0"/>
<path transform="translate(752,565)" d="m0 0c4.98 0.291 8.97 2.23 13.3 4.5 0.694 0.355 1.39 0.709 2.1 1.07 5.71 2.93 11.4 5.96 17 8.99 5.39 2.86 10.9 5.49 16.4 8.06 6.25 2.9 12.2 6.04 18.1 9.61 4.62 2.61 9.41 4.81 14.2 7.01 3.78 1.73 7.32 3.58 10.9 5.75 3.68 1.99 7.4 3.92 11.1 5.86 0.741 0.389 1.48 0.779 2.25 1.18 0.675 0.353 1.35 0.705 2.05 1.07 1.59 0.892 1.59 0.892 2.59 1.89 5.14 0.8 8.75-1.7 13.1-4.12 1.53-0.836 3.06-1.67 4.59-2.5 0.745-0.409 1.49-0.818 2.26-1.24 2.69-1.46 5.41-2.84 8.15-4.19 0.956-0.474 1.91-0.949 2.9-1.44 1-0.495 2.01-0.99 3.04-1.5 10.9-5.37 21.6-10.9 32.4-16.5 8.1-4.23 8.1-4.23 11.8-6.09 2.96-1.48 5.87-3.03 8.78-4.6 5.72-3.06 11.4-6.11 17.3-8.91 0.821-0.394 1.64-0.789 2.49-1.2 2.5-0.774 3.77-0.56 6.2 0.32 0.721 4.54 1.13 8.89 1.13 13.5 0.00315 1.24 0.0063 2.48 0.00955 3.76-0.00179 1.34-0.00384 2.67-0.00613 4.01 6.75e-4 1.39 0.00165 2.78 0.0029 4.16 0.00147 2.9-6.51e-4 5.8-0.00534 8.7-0.0057 3.7-0.00241 7.41 0.00357 11.1 0.00362 2.86 0.00246 5.73-1.28e-4 8.59-6.64e-4 1.37 1.41e-4 2.73 0.00248 4.1 0.00256 1.91-0.00203 3.82-0.0069 5.73-7.96e-4 1.08-0.00159 2.17-0.00241 3.29-0.128 3.1-0.552 6.02-1.13 9.07-2.15 0.772-4.29 1.54-6.44 2.31-0.957 0.344-0.957 0.344-1.93 0.695-3.55 1.27-7.1 2.48-10.7 3.62-2.53 0.82-4.32 1.61-6.62 3-2.76 1.64-5.15 2.01-8.31 2.38v4c-1.32-0.33-2.64-0.66-4-1h3v-2c-0.99 0.33-1.98 0.66-3 1 0-3 0-3 2-6-0.763-0.144-1.53-0.289-2.31-0.438-2.69-0.562-2.69-0.562-5.69-1.56v7h2v2c-3.12 1.31-6.25 2.59-9.38 3.88-1.31 0.547-1.31 0.547-2.64 1.11-5.92 2.41-11.7 4-18 5.02v2c-3.63 0.99-7.26 1.98-11 3 3.85 2.3 3.85 2.3 8 2v-3c5.44-0.99 5.44-0.99 11-2v-2c0.875 0.0464 1.75 0.0928 2.65 0.141 3.57-0.15 5.68-0.901 8.91-2.39 8.17-3.57 16.4-7.11 25.4-6.75v-3c4.33 0.305 7.79 0.881 11.1 3.89 4.98 6.27 7.44 12.6 9.95 20.1l1 1c-0.148-6.56-1.06-11-4.94-16.4-1.06-1.59-1.06-1.59-1.06-3.59-0.578-0.227-1.15-0.454-1.75-0.688-2.82-1.64-4.33-3.71-6.25-6.31 7.37-3.67 15-6.46 22.7-9.12 4.91-1.68 9.77-3.44 14.6-5.3 1.07-0.408 2.13-0.817 3.23-1.24 2.07-0.798 4.14-1.6 6.2-2.42 12.7-4.87 12.7-4.87 19.8-3 4.75 2.36 9.38 7 11.1 12.1 0.984 6.32 0.866 13.8-0.688 20-2.06 2.56-2.06 2.56-4 4-0.99-0.33-1.98-0.66-3-1-0.33 0.66-0.66 1.32-1 2v-2c-5.56 1.77-11 3.76-16.4 5.96-3.66 1.46-7.37 2.79-11.1 4.11-0.839 0.307-1.68 0.614-2.54 0.93-0.911 0.327-1.82 0.655-2.76 0.992-2.4 0.795-2.4 0.795-3.24 3.01-1.99 0.708-3.99 1.37-6 2-3.06 1.29-6.1 2.62-9.14 3.96-4.65 2.04-4.65 2.04-6.86 2.04-0.33 1.32-0.66 2.64-1 4h2c0.33-0.66 0.66-1.32 1-2 0.99 0.33 1.98 0.66 3 1-7.57 4.67-15.8 7.98-24 11.4-0.647 0.275-1.29 0.55-1.96 0.833-4.69 1.91-4.69 1.91-8.04 0.792 2.64-1.32 5.28-2.64 8-4v-2c-1.23 0.58-1.23 0.58-2.49 1.17-6.02 2.81-12 5.48-18.2 7.89-2.89 1.19-5.64 2.58-8.42 4-5.64 2.84-11.5 4.89-17.5 6.87-2.66 0.951-2.66 0.951-4.36 4.06v-2c-0.99 0.33-1.98 0.66-3 1-0.942-3.9-1.02-7.38-0.875-11.4 0.0642-9.49-3.63-15.8-9.88-22.9-3.45-3.39-6.52-3.52-11.2-3.69 0.495-1.49 0.495-1.49 1-3 2.94-0.949 2.94-0.949 6.56-1.69 1.2-0.251 2.4-0.503 3.63-0.762 0.927-0.182 1.85-0.364 2.81-0.551-0.33-0.66-0.66-1.32-1-2l1-1c-0.625 0.0105-1.25 0.0209-1.89 0.0317-101 1.44-101 1.44-126-19.9-2.94-5.02-2.35-9.99-2.25-15.7 0.00566-1.21 0.0113-2.43 0.0172-3.68 0.0224-3.87 0.0726-7.74 0.123-11.6 0.0201-2.63 0.0383-5.25 0.0547-7.88 0.0441-6.44 0.111-12.9 0.195-19.3-0.66-0.33-1.32-0.66-2-1v-13h-2c-0.0579-3.12-0.0936-6.25-0.125-9.38-0.0168-0.889-0.0335-1.78-0.0508-2.7-0.00645-0.851-0.0129-1.7-0.0195-2.58-0.0105-0.786-0.0209-1.57-0.0317-2.38 0.227-1.97 0.227-1.97 2.23-3.97z" fill="#FAFBFC"/>
<path transform="translate(162,707)" d="m0 0c2.88 6.2 5.36 12.5 7.72 18.9 2 5.41 4.12 10.8 6.28 16.1 6.26 15.5 12.3 31.1 17.8 46.9 1.82 5.18 3.87 10.2 6.04 15.3 1.18 2.91 2.18 5.84 3.15 8.82 1.6 4.93 3.47 9.67 5.5 14.4 1.21 2.89 2.38 5.79 3.52 8.7 0.356 0.904 0.712 1.81 1.08 2.74 0.713 1.81 1.42 3.63 2.13 5.45 0.329 0.835 0.658 1.67 0.997 2.53 0.439 1.13 0.439 1.13 0.887 2.28 0.839 2.06 0.839 2.06 2.88 3.87 3.43-8.77 6.85-17.5 10.1-26.4 2.14-5.75 4.4-11.4 6.8-17.1 2.82-6.66 5.31-13.4 7.8-20.2 0.293-0.8 0.585-1.6 0.887-2.42 0.598-1.63 1.19-3.27 1.79-4.91 1.73-4.73 3.6-9.36 5.61-14 0.866-2.18 1.72-4.37 2.56-6.56 0.414-1.07 0.828-2.15 1.25-3.25 1.51-4.07 2.87-8.18 4.18-12.3 0.33-1.03 0.66-2.05 1-3.11 0.33-1.04 0.66-2.07 1-3.14 1-2.61 1-2.61 3-4.61 0.759-2.09 0.759-2.09 1.38-4.5 2.22-7.77 5.44-15.1 8.62-22.5 9.35-0.569 18.7-1.1 28.1-1.19 1.29-0.0142 2.58-0.0284 3.91-0.043 3.03 0.23 3.03 0.23 5.03 2.23 0.246 3.04 0.246 3.04 0.241 7.04 0.00171 0.733 0.00342 1.47 0.00518 2.22 0.00331 2.47-0.00773 4.93-0.0186 7.4-5.64e-4 1.76-2.48e-4 3.53 8.85e-4 5.29 5.76e-4 4.8-0.0112 9.6-0.0251 14.4-0.0125 5.01-0.0137 10-0.0161 15-0.00622 9.49-0.0226 19-0.0427 28.5-0.0223 10.8-0.0333 21.6-0.0434 32.4-0.0209 22.2-0.0561 44.5-0.101 66.7-4.55 1.19-8.87 1.26-13.6 1.31-0.863 0.029-1.73 0.058-2.62 0.0879-0.83 0.00838-1.66 0.0168-2.51 0.0254-1.13 0.0219-1.13 0.0219-2.29 0.0442-2.02-0.47-2.02-0.47-3.77-1.94-1.85-3.73-1.64-7.35-1.58-11.4 0.00151-0.933 0.00302-1.87 0.00458-2.83 0.00957-3.18 0.0415-6.36 0.0735-9.53 0.0121-2.27 0.0231-4.53 0.0332-6.8 0.0408-7.49 0.113-15 0.191-22.5 0.0271-2.62 0.0534-5.25 0.0795-7.87 0.275-27.5 0.596-55.1 0.946-82.6h-3c-0.159 0.643-0.317 1.29-0.48 1.95-1.96 7.59-4.6 14.8-7.52 22.1-0.3 0.751-0.6 1.5-0.908 2.28-1.69 4.25-3.4 8.49-5.13 12.7-0.335 0.825-0.669 1.65-1.01 2.5-0.676 1.67-1.36 3.33-2.04 5-2.03 5.02-3.75 10-5.22 15.3-0.926 2.98-2.22 5.73-3.53 8.56-1.52 3.49-2.84 7.04-4.17 10.6-2.25 6.06-4.57 12.1-7 18.1-3.11 7.68-6.17 15.4-9.06 23.1-0.248 0.661-0.495 1.32-0.751 2-1.21 3.23-2.4 6.46-3.57 9.7-0.431 1.17-0.861 2.34-1.3 3.55-0.375 1.04-0.75 2.08-1.14 3.15-1.18 2.48-1.18 2.48-4.18 4.48-2.86 0.248-5.58 0.37-8.44 0.375-0.764 0.0245-1.53 0.049-2.31 0.0742-3.59 0.0188-5.62-0.0141-8.63-2.09-1.88-2.73-3-5.3-4.12-8.42-0.42-1.15-0.84-2.3-1.27-3.48-0.405-1.14-0.81-2.28-1.23-3.46-0.707-1.96-1.42-3.92-2.12-5.88-0.48-1.33-0.48-1.33-0.969-2.69-1.19-3.2-2.53-6.31-3.91-9.44-2.29-5.59-4.36-11.3-6.46-16.9-2.76-7.39-5.57-14.8-8.54-22.1-1-2.5-2-5-3-7.5-0.663-1.66-1.33-3.31-2-4.96-2.12-5.23-4.09-10.5-6-15.8-1.29-3.5-2.67-6.95-4.07-10.4-1.71-4.27-3.32-8.57-4.83-12.9-3.27-10.4-3.27-10.4-9.1-19.4 0.00222 0.725 0.00444 1.45 0.00673 2.2 0.0278 9.56 0.0454 19.1 0.0558 28.7 8.56e-4 0.78 0.00171 1.56 0.00259 2.36 0.0255 26.4-0.182 52.8-0.565 79.2-0.012 0.824-0.0239 1.65-0.0362 2.5-0.146 10-0.301 20-0.464 30.1-3.6 0.116-7.21 0.187-10.8 0.25-1.02 0.0335-2.05 0.067-3.1 0.102-0.983 0.0129-1.97 0.0258-2.98 0.0391-0.906 0.0209-1.81 0.0419-2.75 0.0635-2.36-0.454-2.36-0.454-3.98-2.09-1.78-3.07-1.75-5.14-1.74-8.68-0.00557-1.3-0.0111-2.6-0.0169-3.94 0.00902-1.44 0.0183-2.88 0.0279-4.31-7.91e-4 -1.52-0.00289-3.03-0.0062-4.55-0.00514-4.12 0.00842-8.25 0.0255-12.4 0.0151-4.33 0.0139-8.66 0.0147-13 0.0037-7.29 0.0187-14.6 0.0412-21.9 0.0287-9.3 0.0392-18.6 0.0437-27.9 0.00401-8.04 0.0165-16.1 0.0303-24.1 0.00406-2.56 0.00701-5.12 0.0098-7.68 0.0392-30.7 0.0392-30.7 0.648-42.7 0.0385-0.76 0.0769-1.52 0.117-2.3 0.299-4.87 0.299-4.87 1.43-6 2.07-0.159 4.15-0.251 6.23-0.316 1.28-0.0419 2.56-0.0838 3.87-0.127 1.36-0.0397 2.72-0.0794 4.08-0.119 1.34-0.0432 2.68-0.0868 4.03-0.131 5.6-0.177 11.2-0.332 16.8-0.307z" fill="#DEDFE0"/>
<path transform="translate(888,760)" d="m0 0c0.664 0.431 1.33 0.861 2.01 1.3 9.45 6.57 16.2 15.3 21 25.7 0.379 0.816 0.758 1.63 1.15 2.47 4.63 11.3 6.88 25.4 5.85 37.5-0.104 1.27-0.209 2.54-0.316 3.85-1.89 20-7.58 35.5-21.7 50.2-2.53 1.66-2.53 1.66-5 3-0.721 0.483-1.44 0.967-2.18 1.46-9.44 6.17-19.6 9.11-30.8 8.54-0.33 0.33-0.66 0.66-1 1-3.33 0.225-6.66 0.1-10 0-1.06-0.0251-1.06-0.0251-2.14-0.0508-16-1.07-30.9-9.49-41.9-20.9-4.88-6.03-8.08-12.9-11-20-0.299-0.717-0.598-1.43-0.906-2.17-4.95-13.2-4.64-27.4-3.22-41.1 0.117-1.17 0.117-1.17 0.237-2.36 0.463-4.1 1.13-7.55 2.89-11.3 0.504-1.33 1-2.66 1.5-4s0.996-2.67 1.5-4c0.307-0.82 0.614-1.64 0.93-2.48 5.78-13.6 17.6-24.5 30.9-30.4 1.03-0.371 2.06-0.742 3.12-1.12 1.49-0.557 1.49-0.557 3-1.12 17.4-5.07 40.8-4.07 56 6.12z" fill="#DEDFE0"/>
<path transform="translate(451,764)" d="m0 0c0.704 0.534 1.41 1.07 2.13 1.62 5.73 4.55 9.21 10.1 12.9 16.4 0.507 0.763 1.01 1.53 1.54 2.31 1.94 3.56 2.99 7.18 4.09 11.1 0.217 0.73 0.433 1.46 0.656 2.21 6.28 21.7 4.5 47.5-6.28 67.4-3.37 5.92-8.03 11.4-13 16-1.33 0.362-2.66 0.703-4 1-0.33 0.99-0.66 1.98-1 3-1.6 1.06-1.6 1.06-3.62 2-0.724 0.336-1.45 0.673-2.2 1.02-0.719 0.324-1.44 0.647-2.18 0.98-1.15 0.557-2.31 1.11-3.5 1.69-3.34 1.25-6.04 1.74-9.55 2.06-2.19 0.218-2.19 0.218-5.14 1.31-5.62 1.38-11.1 1.15-16.8 0.938-0.763-0.018-1.53-0.0361-2.31-0.0547-11.3-0.727-22.5-5.61-31.7-11.9-0.695-0.438-1.39-0.877-2.11-1.33-11.1-7.45-18.4-21.1-21.2-33.9-0.227-1.24-0.454-2.48-0.688-3.75-0.33-0.33-0.66-0.66-1-1-1.79-12.5-2.24-26.6 0-39 0.66-0.66 1.32-1.32 2-2 0.498-1.82 0.925-3.66 1.31-5.5 3.27-13.6 10.9-25.9 22.7-33.5 1.33-1.02 1.33-1.02 2.69-2.06 22.4-13.1 55.9-14.2 76.3 3.06z" fill="#DEDFE0"/>
<path transform="translate(1328,744)" d="m0 0c0.961 2.41 0.961 2.41 1 5-1.14 1.91-1.14 1.91-2.81 3.62-2 2.1-3.56 3.93-5.19 6.38-5.08 0.416-8.34 0.0847-13-2-17.5-3.65-36.9-0.731-52 9-3.54 2.81-6.79 5.83-10 9-0.887 0.784-1.77 1.57-2.69 2.38-12.3 14-17.4 32.3-16.3 50.6 1.13 14.7 6.68 27.3 16.6 38.2 0.764 0.851 1.53 1.7 2.32 2.58 2.12 2.32 2.12 2.32 5.12 4.17v2c0.66 0.227 1.32 0.454 2 0.688 2.49 1.09 4.39 2.2 6.62 3.69 15 9.49 32.8 10.3 49.7 6.59 16.5-4.3 29.4-13.2 38.4-27.7 8.74-15.2 13-34.1 8.39-51.5-0.702-2.11-1.46-4.19-2.29-6.25-0.917-2.98-0.746-4.58 0.223-7.52 2.31-2.56 2.31-2.56 5-5 0.99-1.18 0.99-1.18 2-2.38 2-1.62 2-1.62 4.43-1.71 2.57 1.08 2.57 1.08 4.3 4.41 0.511 1.45 0.996 2.9 1.46 4.36 0.254 0.767 0.508 1.53 0.77 2.33 7.48 23.5 4.72 48-6.36 69.8-8.7 15.4-21.1 26.1-36.6 34.2-1.16 0.619-1.16 0.619-2.34 1.25-5.18 2.54-10.3 3.56-16 4.36-2.58 0.318-2.58 0.318-4.54 0.911-2.51 0.563-4.8 0.613-7.37 0.616-1.5 0.00193-1.5 0.00193-3.02 0.00391-1.04-0.00387-2.07-0.00773-3.14-0.0117-1.54 0.0058-1.54 0.0058-3.12 0.0117-4.95-0.00637-9.65-0.0811-14.5-1.14-0.967-0.202-1.93-0.405-2.93-0.613-5.42-1.29-10.3-2.68-15.2-5.38-1.81-1.03-1.81-1.03-3.65-1.8-10.3-4.55-19.3-12.4-26.2-21.2-0.915-1.06-1.83-2.13-2.75-3.19-13.2-16.6-17.8-39.3-15.8-60 1.45-12.3 5.03-23.2 11.6-33.8 0.369-0.602 0.739-1.2 1.12-1.82 6.38-10.3 12.7-17.5 22.9-24.2 0.33-0.66 0.66-1.32 1-2 2.38-1.35 4.74-2.61 7.19-3.81 0.716-0.355 1.43-0.709 2.17-1.07 20.5-9.94 52.9-15.6 73.6-2.11z" fill="#FAFBFC"/>
<path transform="translate(436 777)" d="m0 0c3.67 3.45 6.08 6.65 8.07 11.3 0.516 0.969 1.03 1.94 1.56 2.94 1.56 3.33 2.53 6.5 3.44 10.1 0.171 0.621 0.342 1.24 0.518 1.88 1.67 6.61 1.83 13 1.79 19.8-0.00737 1.73-0.00737 1.73-0.0149 3.49-0.221 16.1-3.49 32-15.3 43.8-5.97 4.61-11.6 6.71-19 8-0.33 0.33-0.66 0.66-1 1-12.1 0.267-22.7-2.77-32-10.7-4.76-4.69-7.7-9.07-10-15.3-0.389-0.898-0.779-1.8-1.18-2.72-6.63-18.1-4.96-43 2.76-60.5 2.04-4.02 4.46-7.41 7.42-10.8 0.461-0.554 0.923-1.11 1.4-1.68 6.36-7.06 14.7-9.08 23.9-10.2 10.6-0.36 19.7 2.65 27.6 9.54z" fill="#000100"/>
<path transform="translate(878 776)" d="m0 0c9.62 10.4 14.5 24.2 14.9 38.2 0.0205 0.635 0.0409 1.27 0.062 1.93 0.468 16.9 0.839 37.4-11.4 50.6-10 9.34-18.5 11.9-32 11.8-9.58-0.714-17.9-4.36-24.7-11.3-0.33-0.99-0.66-1.98-1-3h-2c-11.1-21.5-13.4-44.8-6.59-68.1 3.28-10.3 9.83-19.7 19.5-24.9 13.7-5.92 31.4-5.45 43.1 4.79z" fill="#000100"/>
<path transform="translate(601,759)" d="m0 0c9.84 8.64 13.9 20.3 15 33 0.354 7.4 0.258 14.8 0.23 22.2-0.00119 2.13-0.00164 4.26-0.00139 6.39-0.00155 4.44-0.00977 8.88-0.0233 13.3-0.0171 5.7-0.0208 11.4-0.0201 17.1-2.71e-4 4.39-0.00574 8.77-0.013 13.2-0.00319 2.1-0.00515 4.21-0.00589 6.31-0.00215 2.92-0.0109 5.84-0.0216 8.77 4.53e-4 0.874 9.06e-4 1.75 0.00137 2.65-0.0322 5.96-0.0322 5.96-1.15 7.07-3.31 0.25-6.62 0.185-9.94 0.188-0.933 0.0122-1.87 0.0245-2.83 0.0371-0.891 0.00193-1.78 0.00387-2.7 0.00586-0.821 0.00411-1.64 0.00822-2.49 0.0125-2.05-0.243-2.05-0.243-4.05-2.24-0.213-2.81-0.301-5.53-0.303-8.35-0.00844-0.864-0.0169-1.73-0.0256-2.62-0.0259-2.87-0.0379-5.74-0.0504-8.6-0.0162-1.99-0.0334-3.99-0.0515-5.98-0.0458-5.26-0.0805-10.5-0.112-15.8-0.0517-8.4-0.117-16.8-0.188-25.2-0.0227-2.93-0.0391-5.85-0.0547-8.78-0.0134-1.81-0.027-3.63-0.0409-5.44-0.00261-0.806-0.00523-1.61-0.00792-2.44-0.101-11.2-1.43-20.5-8.58-29.6-4.9-4.63-10.8-5.17-17.2-5.23-7.51 0.299-12.9 1.12-19.4 5.03h-2c-0.495 1.49-0.495 1.49-1 3-1.52 1.39-1.52 1.39-3.38 2.81-3.32 2.75-4.98 5.15-6.62 9.19l-1.56 3.12c-4.46 10.8-3.77 23.1-3.85 34.5-0.0187 1.78-0.0383 3.55-0.0587 5.33-0.0509 4.64-0.0908 9.27-0.128 13.9-0.0403 4.75-0.0913 9.49-0.141 14.2-0.0963 9.28-0.181 18.6-0.258 27.9-4.04 1.35-7.77 1.22-12 1.25-1.23 0.0309-1.23 0.0309-2.48 0.0625-0.789 0.00516-1.58 0.0103-2.39 0.0156-0.719 0.00935-1.44 0.0187-2.18 0.0283-2.58-0.473-3.34-1.3-4.95-3.36-0.343-2.25-0.343-2.25-0.299-4.9 0.0131-1.49 0.0131-1.49 0.0264-3.01 0.0244-1.07 0.0489-2.15 0.0741-3.25 0.0132-1.12 0.0265-2.24 0.0401-3.39 0.0283-2.34 0.0628-4.67 0.103-7.01 0.0679-4.18 0.0932-8.37 0.115-12.5 0.0286-5.12 0.0776-10.2 0.124-15.4 0.00978-1.09 0.0196-2.18 0.0296-3.3 0.0516-5.72 0.105-11.4 0.159-17.2 0.0557-5.9 0.106-11.8 0.154-17.7 0.0388-4.56 0.0819-9.13 0.126-13.7 0.0204-2.18 0.0391-4.36 0.0561-6.53 0.024-3.02 0.054-6.03 0.0856-9.05 0.00863-1.35 0.00863-1.35 0.0174-2.72 0.0738-6.15 0.0738-6.15 1.19-8.38 3.29-0.0579 6.58-0.0936 9.88-0.125 0.937-0.0168 1.87-0.0335 2.84-0.0508 0.896-0.00645 1.79-0.0129 2.71-0.0195 0.827-0.0105 1.65-0.0209 2.51-0.0317 2.06 0.227 2.06 0.227 4.06 2.23 0.414 2.6 0.414 2.6 0.625 5.62 0.0748 1 0.15 2.01 0.227 3.04 0.0735 1.16 0.0735 1.16 0.148 2.34 4.05-1.8 6.87-4.46 10.1-7.44 1.9-1.56 1.9-1.56 4.9-2.56 1-0.996 2-2 3-3 15.2-9.24 39.5-9.06 54 1z" fill="#DDDEDF"/>
<path transform="translate(1023,634)" d="m0 0c4.42 2.96 8.05 6.21 10.6 10.9 0.582 4.08 0.647 7.95 0.438 12.1-0.0296 0.804-0.0593 1.61-0.0898 2.44-0.266 3.95-0.434 5.97-2.97 9.12-0.639 0.474-1.28 0.949-1.94 1.44-0.99-0.33-1.98-0.66-3-1-0.33 0.66-0.66 1.32-1 2v-2c-5.56 1.77-11 3.76-16.4 5.96-3.66 1.46-7.37 2.79-11.1 4.11-0.839 0.307-1.68 0.614-2.54 0.93-0.911 0.327-1.82 0.655-2.76 0.992-2.4 0.795-2.4 0.795-3.24 3.01-1.99 0.708-3.99 1.37-6 2-3.06 1.29-6.1 2.62-9.14 3.96-4.65 2.04-4.65 2.04-6.86 2.04-0.33 1.32-0.66 2.64-1 4h2l1-2c1.49 0.495 1.49 0.495 3 1-7.57 4.67-15.8 7.98-24 11.4-0.647 0.275-1.29 0.55-1.96 0.833-4.69 1.91-4.69 1.91-8.04 0.792 2.64-1.32 5.28-2.64 8-4v-2c-1.23 0.58-1.23 0.58-2.49 1.17-6.02 2.81-12 5.48-18.2 7.89-2.89 1.19-5.64 2.58-8.42 4-5.64 2.84-11.5 4.89-17.5 6.87-2.66 0.951-2.66 0.951-4.36 4.06v-2l-3 1c-0.942-3.9-1.02-7.38-0.875-11.4 0.0642-9.49-3.63-15.8-9.88-22.9-3.45-3.39-6.52-3.52-11.2-3.69 0.33-0.99 0.66-1.98 1-3 2.94-0.949 2.94-0.949 6.56-1.69 1.2-0.251 2.4-0.503 3.63-0.762 0.927-0.182 1.85-0.364 2.81-0.551-0.33-0.66-0.66-1.32-1-2 2.97-0.495 2.97-0.495 6-1v2c2.51-1.26 2.87-2.5 4-5 1.48 0.495 1.48 0.495 3 1h4v-3c3.63-0.66 7.26-1.32 11-2v-2c0.875 0.0464 1.75 0.0928 2.65 0.141 3.57-0.15 5.68-0.901 8.91-2.39 8.17-3.57 16.4-7.11 25.4-6.75v-3c4.33 0.305 7.79 0.881 11.1 3.89 4.98 6.27 7.44 12.6 9.95 20.1l1 1c-0.148-6.56-1.06-11-4.94-16.4-1.06-1.59-1.06-1.59-1.06-3.59-0.577-0.227-1.15-0.454-1.75-0.688-2.82-1.64-4.33-3.71-6.25-6.31 7.37-3.67 14.9-6.46 22.7-9.12 8.2-2.82 16.3-5.86 24.4-8.95 0.968-0.367 1.94-0.734 2.93-1.11 0.857-0.327 1.71-0.655 2.6-0.992 4.92-1.74 9.27-2.57 14.3-0.829z" fill="#FAFBFC"/>
<path transform="translate(1106 804)" d="m0 0c0.84-6.75e-4 1.68-0.00135 2.54-0.00204 36.3 0.0463 36.3 0.0463 46.8 10.1 6.47 6.98 8.54 13 8.96 22.4 0.0677 0.899 0.135 1.8 0.205 2.72 0.376 7.53-1.2 13.4-6.04 19.3-11.1 9.08-22.6 10-36.4 10-1.37 0.00644-2.74 0.0132-4.11 0.0202-2.85 0.0119-5.7 0.0157-8.56 0.0145-3.66-2.05e-4 -7.31 0.0273-11 0.0615-2.82 0.0222-5.64 0.0263-8.46 0.0252-2 0.0035-4.01 0.0252-6.01 0.0471-1.21-0.00615-2.42-0.0123-3.67-0.0186-1.07 0.00285-2.14 0.0057-3.24 0.00864-2.65-0.494-2.65-0.494-4.5-2.17-1.42-2.86-1.49-4.79-1.43-7.98 0.0138-1.13 0.0276-2.27 0.0418-3.44 0.0311-1.22 0.0622-2.44 0.0942-3.7 0.0217-1.25 0.0434-2.51 0.0658-3.8 0.0493-2.65 0.104-5.3 0.17-7.95 0.0834-3.4 0.144-6.8 0.198-10.2 0.0534-3.24 0.123-6.49 0.191-9.73 0.021-1.22 0.0419-2.45 0.0635-3.71 0.0296-1.13 0.0591-2.26 0.0896-3.42 0.0224-0.996 0.0447-1.99 0.0678-3.02 0.299-2.38 0.299-2.38 2.3-4.38 10.3-1.75 21.2-1.24 31.6-1.25z" fill="#000100"/>
<path transform="translate(734 717)" d="m0 0c0.745 0.00451 1.49 0.00902 2.26 0.0137 1.83 0.0117 3.66 0.0297 5.49 0.0488 1.61 3.23 1.12 6.75 1.1 10.3-0.00141 0.818-0.00283 1.64-0.00429 2.48-0.00561 2.62-0.0182 5.24-0.0309 7.86-0.00501 1.77-0.00958 3.55-0.0137 5.32-0.011 4.35-0.0283 8.7-0.0488 13.1h2v2c0.99-0.33 1.98-0.66 3-1 1.69-0.0932 3.38-0.131 5.07-0.133 0.978-0.00129 1.96-0.00258 2.96-0.00391 1.02 0.00387 2.04 0.00773 3.09 0.0117 1.03-0.00387 2.05-0.00773 3.11-0.0117 0.976 0.00129 1.95 0.00258 2.96 0.00391 0.897 0.00113 1.79 0.00226 2.72 0.00342 2.09 0.129 2.09 0.129 3.09 1.13 0.0731 2.53 0.0925 5.03 0.0625 7.56-0.00451 0.711-0.00902 1.42-0.0137 2.15-0.0118 1.76-0.0298 3.52-0.0488 5.28-3.12 1.04-5.27 1.11-8.54 1.1-1.07-0.00322-2.15-0.00645-3.25-0.00977-1.12-0.00838-2.24-0.0168-3.39-0.0254-1.13-0.00451-2.26-0.00902-3.43-0.0137-2.79-0.0118-5.59-0.0283-8.38-0.0488-0.0232 11.4-0.041 22.7-0.0518 34.1-0.00521 5.27-0.0123 10.5-0.0236 15.8-0.0109 5.09-0.0168 10.2-0.0194 15.3-0.00184 1.94-0.00545 3.88-0.0109 5.82-0.00728 2.72-0.00826 5.44-0.0078 8.16-0.00539 1.2-0.00539 1.2-0.0109 2.42 0.0104 5.65 0.323 11.1 2.12 16.5 8.4 1.92 16.4 2.23 25 2v3c0.058 0.928 0.116 1.86 0.176 2.81 0.0677 1.58 0.0677 1.58 0.137 3.19 0.058 1.05 0.116 2.1 0.176 3.19-0.488 2.81-0.488 2.81-2.86 4.62-0.868 0.394-1.74 0.789-2.63 1.2-0.784 0.371-1.57 0.743-2.38 1.12-9.68 3.23-21.2 3.38-30.5-0.93-5.9-3.27-9.23-7.14-12.2-13.2-1.35-4.8-1.17-9.69-1.19-14.6-0.00829-0.965-0.0166-1.93-0.0251-2.92-0.0174-2.09-0.0325-4.18-0.0458-6.27-0.0211-3.3-0.0481-6.6-0.0767-9.91-0.0698-8.2-0.129-16.4-0.189-24.6-0.0508-6.93-0.106-13.9-0.166-20.8-0.0267-3.26-0.0474-6.52-0.068-9.79-0.0166-1.99-0.0335-3.97-0.0507-5.96-0.00418-0.914-0.00837-1.83-0.0127-2.77 0.359-3.99 0.359-3.99-1.18-7.35-1.46-0.145-2.93-0.227-4.4-0.281-0.89-0.0374-1.78-0.0748-2.7-0.113-0.937-0.0348-1.87-0.0696-2.84-0.105-1.84-0.0688-3.69-0.141-5.53-0.219-0.821-0.0303-1.64-0.0606-2.49-0.0918-2.05-0.189-2.05-0.189-4.05-1.19-0.0539-2.12-0.0927-4.25-0.125-6.38-0.0232-1.18-0.0464-2.37-0.0703-3.59 0.195-3.04 0.195-3.04 2.2-5.04 5.44-0.981 10.3-0.983 15.8-0.52 1.16 0.0956 2.32 0.191 3.51 0.29 0.878 0.0758 1.76 0.152 2.66 0.23-0.0105-1.11-0.0209-2.22-0.0317-3.36-0.0361-4.11-0.0591-8.22-0.0781-12.3-0.0101-1.78-0.0237-3.56-0.041-5.34-0.0242-2.56-0.0356-5.11-0.0444-7.67-0.0103-0.799-0.0206-1.6-0.0313-2.42-3.99e-4 -1.96 0.104-3.91 0.227-5.87 3.93-3.93 8.99-3.12 14.2-3.06z" fill="#DEDFE0"/>
<path transform="translate(1420 717)" d="m0 0c1.2 0.00483 1.2 0.00483 2.43 0.00977 1.25 0.0126 1.25 0.0126 2.53 0.0254 0.845 0.00451 1.69 0.00902 2.56 0.0137 2.08 0.0118 4.17 0.0297 6.25 0.0488 0.76 4.67 1.08 9.08 1 13.8-0.0703 8.77 0.457 17.4 1 26.2h26c0.923 3.69 1.1 6.48 1.06 10.2-0.00902 1.08-0.018 2.16-0.0273 3.27-0.0116 0.82-0.0232 1.64-0.0352 2.48-0.96-0.00786-0.96-0.00786-1.94-0.0159-2.92-0.0209-5.83-0.0338-8.75-0.0466-1.01-0.00838-2.01-0.0168-3.05-0.0254-0.976-0.00322-1.95-0.00645-2.96-0.00977-0.895-0.00524-1.79-0.0105-2.71-0.0159-2.62 0.115-5.03 0.531-7.59 1.11-0.995 4.95-1.13 9.65-1.1 14.7 0.00158 0.851 0.00315 1.7 0.00478 2.58 0.00746 2.8 0.0235 5.6 0.0416 8.4 0.00571 0.959 0.0114 1.92 0.0173 2.91 0.0315 5.07 0.0704 10.1 0.115 15.2 0.0439 5.23 0.0596 10.5 0.0692 15.7 0.0129 4.03 0.0475 8.06 0.0881 12.1 0.0155 1.93 0.0226 3.86 0.0211 5.79-1.79e-4 2.7 0.0307 5.39 0.0691 8.09-0.0106 1.19-0.0106 1.19-0.0214 2.41 0.0905 4 0.533 5.93 3 9.13 3.49 2.6 6.49 2.82 10.7 2.89 1.05 0.0503 1.05 0.0503 2.12 0.102 3.04 0.115 5.78 0.0456 8.76-0.594 0.701-0.126 1.4-0.253 2.12-0.383 2.67 2.67 2.33 4.15 2.38 7.88 0.0284 1.05 0.0567 2.1 0.0859 3.18-0.57 3.64-1.59 4.71-4.46 6.95-8.88 4.74-21.1 5.7-30.7 2.88-7.23-2.79-12.4-6.75-15.6-13.8-1.86-5.44-1.82-10.7-1.79-16.4 0.00146-0.932 0.00292-1.86 0.00443-2.83 0.0038-2.02 0.00991-4.04 0.0181-6.06 0.0128-3.19 0.0193-6.39 0.0241-9.58 0.0114-6.78 0.0307-13.6 0.051-20.3 0.0236-7.86 0.044-15.7 0.0559-23.6 0.0065-3.15 0.019-6.3 0.0317-9.45 0.00363-1.92 0.00698-3.85 0.01-5.77 0.00517-0.879 0.0103-1.76 0.0157-2.66 2.97e-4 -3.39-0.0341-6.17-1.11-9.41-0.939 0.0157-0.939 0.0157-1.9 0.0317-2.83 0.0415-5.65 0.0676-8.48 0.0933-0.985 0.0168-1.97 0.0335-2.98 0.0508-0.941 0.00645-1.88 0.0129-2.85 0.0195-1.3 0.0157-1.3 0.0157-2.63 0.0317-2.15-0.227-2.15-0.227-4.15-2.23-0.266-2.97-0.266-2.97-0.25-6.5-0.00516-1.17-0.0103-2.33-0.0156-3.53 0.266-2.97 0.266-2.97 2.27-4.97 2.15-0.227 2.15-0.227 4.79-0.195 0.941 0.00645 1.88 0.0129 2.85 0.0195 1.48 0.0251 1.48 0.0251 2.98 0.0508 0.993 0.00902 1.99 0.018 3.01 0.0273 2.46 0.0236 4.91 0.0565 7.37 0.0977 0.0251-0.933 0.0501-1.87 0.0759-2.83 0.0956-3.49 0.195-6.97 0.296-10.5 0.0431-1.5 0.0848-3.01 0.125-4.51 0.0583-2.17 0.122-4.34 0.186-6.52 0.0367-1.3 0.0733-2.61 0.111-3.95 0.201-3.65 0.632-7.13 1.21-10.7 2.77-0.922 4.38-1.12 7.23-1.1z" fill="#DEDFE0"/>
<path transform="translate(1398,726)" d="m0 0c0.33 0.66 0.66 1.32 1 2-1.21 3.28-2.96 5.06-5.62 7.25-3.81 3.21-7.28 6.64-10.7 10.2-1.66 1.5-1.66 1.5-3.66 1.5-0.371 0.835-0.371 0.835-0.75 1.69-2.61 4.84-6.4 8.46-10.2 12.3-2.09 2.39-4.17 4.79-6.23 7.21-0.584 0.592-1.17 1.18-1.77 1.79h-2c-0.233 0.706-0.467 1.41-0.707 2.14-1.54 3.41-3.54 5.78-5.98 8.61-0.902 1.06-1.8 2.12-2.7 3.18-0.443 0.519-0.886 1.04-1.34 1.57-1.78 2.11-3.5 4.27-5.21 6.44-0.525 0.669-1.05 1.34-1.59 2.03-1.64 2.27-3.04 4.63-4.47 7.04-1.22 1.84-2.45 3.67-3.69 5.5-7.14 10.7-13.6 21.7-19.9 32.9-3.14 5.52-6.37 10.9-9.84 16.2-2.15 3.33-4.16 6.75-6.16 10.2-1.34 2.17-2.8 4.18-4.36 6.19-2.89-0.328-4.53-0.527-6.61-2.63-3.97-6.3-7.01-12.8-9.89-19.7-6.73-15.9-6.73-15.9-15.2-30.8-0.859-1.33-0.859-1.33-1.73-2.7-2.41-3.46-4.19-4.56-8.14-5.8-0.817-0.26-1.63-0.521-2.48-0.789-0.94-0.29-0.94-0.29-1.9-0.586 2.01-6.03 5.44-9.08 11-12 4.99-1.83 10.1-1.66 14.9 0.5 6.93 3.8 12 9.84 16.1 16.5 0.989 1.34 1.98 2.68 3 4 3.3-0.569 4.87-1.41 7-4 0.422-0.727 0.843-1.45 1.28-2.2 2.39-3.89 5.23-7.4 8.05-11 1.9-2.43 3.67-4.82 5.23-7.47 1.55-2.53 3.31-4.29 5.44-6.34 1.19-1.48 2.36-2.98 3.5-4.5 2.32-3.08 4.73-5.82 7.5-8.5 2.65-2.58 5.11-5.13 7.44-8 2.63-3.08 5.43-5.45 8.56-8 0.763-0.763 1.53-1.53 2.31-2.31 7.29-7.29 15-13.2 23.7-18.7 1.09-0.706 2.18-1.41 3.3-2.14 17.7-11.3 17.7-11.3 23.7-8.86z" fill="#FAFBFC"/>
<path transform="translate(1079 728)" d="m0 0c1.1-0.016 2.19-0.032 3.32-0.0484 1.19-0.00536 2.39-0.0107 3.61-0.0163 1.84-0.0135 1.84-0.0135 3.72-0.0274 2.61-0.0145 5.23-0.0234 7.84-0.0271 3.96-0.00637 7.91-0.0609 11.9-0.112 29.3-0.192 29.3-0.192 38.1 8.07 1.14 1.22 1.14 1.22 2.29 2.47 1.08 1.14 1.08 1.14 2.19 2.31 4.86 7.2 4.92 17 3.31 25.3-2.29 7.8-7.75 12.2-14.5 16.4-3.83 1.28-7.5 1.42-11.5 1.72-2.49 0.136-2.49 0.136-4.5 1.28-1.48 0.0997-2.96 0.138-4.45 0.145-1.38 0.00957-1.38 0.00957-2.79 0.0193-0.999 0.00111-2 0.00223-3.03 0.00337-1.03 0.00333-2.05 0.00666-3.11 0.0101-2.18 0.00507-4.35 0.00741-6.53 0.00725-3.32 0.00218-6.64 0.0203-9.96 0.0393-2.11 0.00294-4.23 0.00492-6.34 0.00586-0.991 0.00719-1.98 0.0144-3 0.0218-5-0.0165-9.11-0.266-13.8-2.25-0.0506-7.51-0.0857-15-0.11-22.5-0.0101-2.56-0.0237-5.11-0.041-7.67-0.0242-3.67-0.0356-7.34-0.0444-11-0.0103-1.15-0.0206-2.3-0.0313-3.48-1.51e-4 -1.06-3.02e-4 -2.12-4.58e-4 -3.21-0.00444-0.937-0.00888-1.87-0.0135-2.84 0.506-4.74 3.44-4.51 7.48-4.56z" fill="#000100"/>
<path transform="translate(1019,752)" d="m0 0c1 1 1 1 1.1 4.6-0.00667 1.49-0.0186 2.98-0.0352 4.46-0.00451 0.759-0.00902 1.52-0.0137 2.3-0.0118 1.88-0.0298 3.76-0.0488 5.64-0.854 0.113-0.854 0.113-1.72 0.228-2.61 0.351-5.23 0.718-7.84 1.08-0.895 0.118-1.79 0.236-2.71 0.357-11.6 1.66-20.6 6.4-28.3 15.4-1.51 1.93-1.51 1.93-2.52 4.15-0.93 1.82-0.93 1.82-2.93 2.82-0.637 2.37-1.13 4.65-1.56 7.06-0.249 1.29-0.498 2.58-0.754 3.91-1.85 12-1.84 24.3-1.96 36.3-0.0181 1.39-0.0367 2.77-0.0558 4.16-0.0687 5.06-0.13 10.1-0.189 15.2-0.0509 4.33-0.106 8.65-0.166 13-0.0265 2.02-0.0473 4.03-0.068 6.05-0.0167 1.21-0.0334 2.42-0.0507 3.67-0.0188 1.6-0.0188 1.6-0.038 3.24-0.151 2.4-0.151 2.4-1.15 3.4-1.48 0.0288-2.96-0.013-4.44-0.0859-1.34-0.0657-1.34-0.0657-2.71-0.133-0.941-0.0516-1.88-0.103-2.85-0.156-1.41-0.0657-1.41-0.0657-2.85-0.133-7.02-0.364-7.02-0.364-8.15-1.49-0.0961-1.67-0.122-3.34-0.12-5.02-0.00137-1.09-0.00275-2.17-0.00417-3.29 0.00539-1.8 0.00539-1.8 0.0109-3.64-1.46e-4 -1.26-2.92e-4 -2.52-4.43e-4 -3.81-2.88e-4 -3.46 0.00561-6.92 0.0126-10.4 0.00623-3.61 0.00684-7.23 0.00803-10.8 0.00311-6.85 0.0113-13.7 0.0213-20.5 0.0112-7.79 0.0167-15.6 0.0217-23.4 0.0105-16 0.0281-32.1 0.0503-48.1 6.4-3.4 14-2.45 21-1 2.85 2.85 2.46 5.8 2.62 9.62 0.0387 0.706 0.0773 1.41 0.117 2.14 0.0943 1.74 0.177 3.49 0.258 5.23h3c0.921-1.4 1.84-2.8 2.72-4.22 4.84-6.76 11.9-10.5 19.3-13.8 0.642-0.309 1.28-0.619 1.95-0.938 6.64-3.1 13.8-3.59 21.1-3.06z" fill="#DEDFE0"/>
<path transform="translate(751,586)" d="m0 0h1c0.33 4.29 0.66 8.58 1 13 0.33-3.3 0.66-6.6 1-10h1c-0.00888 0.83-0.0178 1.66-0.0269 2.52-0.0802 7.83-0.141 15.7-0.18 23.5-0.0209 4.02-0.0492 8.05-0.0945 12.1-0.0435 3.88-0.0674 7.77-0.0778 11.7-0.00739 1.48-0.0218 2.96-0.0434 4.44-0.0291 2.08-0.033 4.15-0.0312 6.23-0.00888 1.18-0.0178 2.36-0.0269 3.58 0.584 3.67 1.58 4.77 4.48 7.02 3.15 1.64 3.15 1.64 6.75 3 1.17 0.474 2.34 0.949 3.55 1.44 12.4 4.38 25.3 6.5 38.3 8.19 0.795 0.105 1.59 0.21 2.41 0.319 39 7.38 39 7.38 76 3.06 0.99 0.66 1.98 1.32 3 2-0.99 0.66-1.98 1.32-3 2l-2 2c-4.45 1.31-8.33 2.29-13 2v2c0.969-0.0206 1.94-0.0412 2.94-0.0625 5.87 0.823 9.45 5.74 13.1 10.1 3.39 4.79 5.14 9.25 5.1 15.1-0.00322 0.754-0.00645 1.51-0.00977 2.29-0.00838 0.777-0.0168 1.55-0.0254 2.36-0.00451 0.793-0.00902 1.59-0.0137 2.4-0.0117 1.95-0.0297 3.9-0.0488 5.85 5.26-1.22 9.98-3.46 14.8-5.94 4.11-2.09 8.36-3.59 12.7-5.12 2.97-1.1 5.74-2.47 8.55-3.94 0.762-0.304 1.52-0.608 2.31-0.922 3.83-1.53 7.53-3.31 11.3-5.05 2.43-1.02 2.43-1.02 4.43-1.02 0.33 0.99 0.66 1.98 1 3-2.97 0.99-5.94 1.98-9 3v3h-2l-1-1c-0.33 0.99-0.66 1.98-1 3-3.47 0.495-3.47 0.495-7 1v2c-0.507 0.211-1.01 0.422-1.54 0.639-10.2 4.27-20.4 8.61-30.5 13.4-0.33-0.66-0.66-1.32-1-2-0.433 0.495-0.866 0.99-1.31 1.5-1.69 1.5-1.69 1.5-4.69 1.5v2c-0.784 0.124-1.57 0.247-2.38 0.375-2.77 0.416-2.77 0.416-4.62 2.62h-3c-0.33 0.99-0.66 1.98-1 3-2.71 0.0271-5.42 0.0469-8.12 0.0625-0.761 0.00838-1.52 0.0168-2.3 0.0254-4.28 0.0184-8.41 0.0187-12.6-1.09-0.66-0.99-1.32-1.98-2-3-0.763-0.289-1.53-0.578-2.31-0.875-3.41-1.43-5.3-3.33-7.69-6.12v-3c-0.99-0.33-1.98-0.66-3-1-1.53-3.6-1.13-7.66-1.12-11.5-0.00387-1.96-0.00387-1.96-0.00781-3.97 0.24-6.38 1.54-8.06 6.13-12.5 0.495-1.49 0.495-1.49 1-3 2.56-1.19 2.56-1.19 5-2v-3c1.5-1.69 1.5-1.69 3-3-4.07-0.41-8.14-0.819-12.2-1.23-1.38-0.138-2.76-0.277-4.14-0.416-1.34-0.135-2.68-0.269-4.02-0.404-1.97-0.198-3.94-0.398-5.92-0.598-4.18-0.401-8.37-0.721-12.6-0.997-2.15-0.359-2.15-0.359-5.15-2.36-2.89-0.426-2.89-0.426-6.12-0.562-1.16-0.0761-2.32-0.152-3.52-0.23-1.11-0.0683-2.22-0.137-3.36-0.207-5.99-0.404-10.6-1.35-16-4v-2c-0.742 0.186-1.49 0.371-2.25 0.562-4.28 0.682-7.32-0.722-11.2-2.5-2.43-1.11-4.78-2.14-7.31-3-3.35-1.58-5-3.08-7.25-6.06-2.59-8.48-2.19-17.3-1.98-26.1 0.0262-1.42 0.0515-2.84 0.0758-4.26 0.066-3.7 0.145-7.39 0.227-11.1 0.0816-3.79 0.151-7.58 0.221-11.4 0.139-7.4 0.291-14.8 0.453-22.2z" fill="#090A0C"/>
<path transform="translate(577 752)" d="m0 0c1.02-0.0184 1.02-0.0184 2.07-0.0371 8.99-0.0257 17.2 2.96 24 8.91 14.3 15.2 13.4 34.1 13.3 53.6-0.00119 2.13-0.00164 4.26-0.00139 6.39-0.00155 4.44-0.00977 8.88-0.0233 13.3-0.0171 5.7-0.0208 11.4-0.0201 17.1-2.71e-4 4.39-0.00574 8.77-0.013 13.2-0.00319 2.1-0.00515 4.21-0.00589 6.31-0.00215 2.92-0.0109 5.84-0.0216 8.77 4.53e-4 0.874 9.06e-4 1.75 0.00137 2.65-0.0322 5.96-0.0322 5.96-1.15 7.07-3.31 0.25-6.62 0.185-9.94 0.188-0.933 0.0122-1.87 0.0245-2.83 0.0371-0.891 0.00193-1.78 0.00387-2.7 0.00586-0.821 0.00411-1.64 0.00822-2.49 0.0125-2.05-0.243-2.05-0.243-4.05-2.24-0.213-2.81-0.301-5.53-0.303-8.35-0.00844-0.864-0.0169-1.73-0.0256-2.62-0.0259-2.87-0.0379-5.74-0.0504-8.6-0.0162-1.99-0.0334-3.99-0.0515-5.98-0.0458-5.26-0.0805-10.5-0.112-15.8-0.0517-8.4-0.117-16.8-0.188-25.2-0.0227-2.93-0.0391-5.85-0.0547-8.78-0.0134-1.81-0.027-3.63-0.0409-5.44-0.00261-0.806-0.00523-1.61-0.00792-2.44-0.101-11.2-1.43-20.5-8.58-29.6-3.42-3.23-7.13-4.01-11.6-4.64-1.95-0.555-1.95-0.555-3.95-3.55-1.65-3.48-2.32-6.14-2-10l1-1c-0.99-0.66-1.98-1.32-3-2 4.29-1.04 8.48-1.18 12.9-1.19z" fill="#DEDFE0"/>
<path transform="translate(685,512)" d="m0 0v2c0.643 0.0657 1.29 0.131 1.95 0.199 4.37 1.15 7.97 3.36 11.9 5.61 5.66 3.23 11.3 6.33 17.2 9.19 1.2 0.596 2.41 1.19 3.61 1.79 0.598 0.296 1.2 0.593 1.81 0.898 6.74 3.35 13.4 6.79 20.1 10.3 5.66 2.99 11.3 5.96 17.1 8.81 0.621 0.309 1.24 0.619 1.88 0.938 3.18 1.58 6.37 3.16 9.56 4.73 23.5 11.6 23.5 11.6 34.2 17.9 4.18 2.42 8.49 4.54 12.8 6.64 1.42 0.706 2.83 1.41 4.25 2.12 2.31 1.16 4.62 2.3 6.94 3.44 0.928 0.474 1.86 0.949 2.81 1.44 0.928 0.433 1.86 0.866 2.81 1.31 2.19 1.69 2.19 1.69 3.19 4.38 0 4.39-1.27 7.29-3 11.3-4.17-1.59-8.14-3.5-12.1-5.5-1.04-0.52-1.04-0.52-2.1-1.05-6.28-3.16-12.5-6.44-18.7-9.73-6.97-3.68-14-7.23-21.1-10.7-3.54-1.76-7.08-3.53-10.6-5.3-1.28-0.642-2.57-1.28-3.85-1.93-2.3-1.15-4.59-2.34-6.86-3.55-0.879-0.398-1.76-0.797-2.66-1.21l-2 1v-2l-4 2c-0.156-0.737-0.312-1.47-0.473-2.23-2.3-4.16-5.72-5.19-9.96-7.02-0.777-0.351-1.55-0.701-2.35-1.06-3.05-1.36-6.04-2.63-9.21-3.69v-2c-0.99 0.33-1.98 0.66-3 1-0.99-0.33-1.98-0.66-3-1-0.0496 4.89-0.0858 9.79-0.11 14.7-0.01 1.66-0.0237 3.33-0.041 4.99-0.0243 2.4-0.0356 4.79-0.0444 7.19-0.0103 0.74-0.0206 1.48-0.0313 2.24-0.00114 5.28 0.777 8.87 3.84 13.2 1.96 3.88 1.71 7.27 1.57 11.6-0.0203 1.18-0.0203 1.18-0.041 2.39-0.0351 1.93-0.089 3.87-0.146 5.8-2-1-2-1-3-4-0.99-0.495-0.99-0.495-2-1v5c-2.38 0.125-2.38 0.125-5 0l-2-2c-0.33 2.97-0.66 5.94-1 9-1.32-0.33-2.64-0.66-4-1 0.165-1.2 0.33-2.39 0.5-3.62 0.732-6.45 0.583-12.9 0.5-19.4 1.98-0.99 1.98-0.99 4-2 0.66-15.8 1.32-31.7 2-48-1.98-0.66-3.96-1.32-6-2-1.73-0.964-3.47-1.93-5.18-2.94-3.19-1.85-6.52-3.43-9.82-5.06-2.5-1.25-5-2.5-7.5-3.75-1.24-0.62-2.48-1.24-3.72-1.86-0.918-0.459-1.84-0.918-2.78-1.39v-2c-0.742-0.124-1.49-0.247-2.25-0.375-2.58-0.586-4.5-1.26-6.75-2.62-1.18-2.35-1.17-3.88-1.19-6.5-0.0142-0.794-0.0284-1.59-0.043-2.41 0.23-2.09 0.23-2.09 2.23-4.09 3.91-1.74 7.1-0.274 11 1z" fill="#040507"/>
<path transform="translate(1023,634)" d="m0 0c4.42 2.96 8.05 6.21 10.6 10.9 0.582 4.08 0.647 7.95 0.438 12.1-0.0445 1.21-0.0445 1.21-0.0898 2.44-0.266 3.95-0.434 5.97-2.97 9.12-0.639 0.474-1.28 0.949-1.94 1.44-1.48-0.495-1.48-0.495-3-1-0.495 0.99-0.495 0.99-1 2v-2c-5.56 1.77-11 3.76-16.4 5.96-3.66 1.46-7.37 2.79-11.1 4.11-0.839 0.307-1.68 0.614-2.54 0.93-1.37 0.491-1.37 0.491-2.76 0.992-2.4 0.795-2.4 0.795-3.24 3.01-1.99 0.708-3.99 1.37-6 2-3.06 1.29-6.1 2.62-9.14 3.96-4.65 2.04-4.65 2.04-6.86 2.04-0.33 1.32-0.66 2.64-1 4h2c0.33-0.66 0.66-1.32 1-2 0.99 0.33 1.98 0.66 3 1-7.57 4.67-15.8 7.98-24 11.4-0.647 0.275-1.29 0.55-1.96 0.833-4.69 1.91-4.69 1.91-8.04 0.792 5.62-3 5.62-3 9-3 0.33-1.32 0.66-2.64 1-4 2.48-0.495 2.48-0.495 5-1v-2c2.65-1.46 3.89-2 7-2-0.149-13.2-0.514-23.9-10-34-0.66-0.33-1.32-0.66-2-1v-4c4.33 0.305 7.79 0.881 11.1 3.89 4.98 6.27 7.44 12.6 9.95 20.1l1 1c-0.148-6.56-1.06-11-4.94-16.4-1.06-1.59-1.06-1.59-1.06-3.59-0.577-0.227-1.15-0.454-1.75-0.688-2.82-1.64-4.33-3.71-6.25-6.31 7.37-3.67 14.9-6.46 22.7-9.12 8.2-2.82 16.3-5.86 24.4-8.95 0.968-0.367 1.94-0.734 2.93-1.11 1.29-0.491 1.29-0.491 2.6-0.992 4.92-1.74 9.27-2.57 14.3-0.829z" fill="#FAFBFC"/>
<path transform="translate(673,756)" d="m0 0c2 2 2 2 2.25 4.27-8.17e-4 1.43-8.17e-4 1.43-0.00165 2.9 0.00419 1.1 0.00839 2.19 0.0127 3.32-0.00843 1.81-0.00843 1.81-0.017 3.66 0.0019 1.27 0.0038 2.53 0.00575 3.84 0.00486 3.48-0.00282 6.96-0.013 10.4-0.00877 3.64-0.00702 7.27-0.00664 10.9-9.37e-4 6.1-0.00963 12.2-0.0233 18.3-0.0157 7.07-0.021 14.1-0.0203 21.2 6.09e-4 6.79-0.00449 13.6-0.0128 20.4-0.00354 2.89-0.00536 5.79-0.00589 8.68-0.00119 4.03-0.0109 8.07-0.0216 12.1 6.8e-4 1.81 6.8e-4 1.81 0.00137 3.66-0.00426 1.09-0.00853 2.18-0.0129 3.31-0.00168 0.955-0.00335 1.91-0.00508 2.89-0.129 2.15-0.129 2.15-1.13 3.15-3.31 0.25-6.62 0.185-9.94 0.188-0.933 0.0122-1.87 0.0245-2.83 0.0371-0.891 0.00193-1.78 0.00387-2.7 0.00586-0.821 0.00411-1.64 0.00822-2.49 0.0125-2.05-0.243-2.05-0.243-4.05-2.24-0.23-2.26-0.23-2.26-0.203-5.14 0.00566-1.09 0.0113-2.18 0.0172-3.3 0.0165-1.2 0.0331-2.4 0.0501-3.63 0.00946-1.26 0.0189-2.52 0.0287-3.81 0.0262-3.46 0.0649-6.91 0.106-10.4 0.0406-3.61 0.0698-7.22 0.1-10.8 0.0593-6.84 0.129-13.7 0.202-20.5 0.0829-7.78 0.154-15.6 0.225-23.4 0.145-16 0.305-32 0.474-48 0.843-0.0606 1.69-0.121 2.55-0.184 1.1-0.0838 2.19-0.168 3.32-0.254 1.09-0.0812 2.18-0.162 3.3-0.246 3.92-0.44 6.7-1.57 10.8-1.32z" fill="#DEDFE0"/>
<path transform="translate(1039,519)" d="m0 0c-0.928 0.598-1.86 1.2-2.81 1.81-3.06 1.94-3.06 1.94-4.81 3.88-1.38 1.31-1.38 1.31-3.17 1.71-2.69 0.734-4.53 1.97-6.83 3.54-0.776 0.525-1.55 1.05-2.35 1.59-2.11 1.46-2.11 1.46-4.02 3.47-1.63 0.583-3.28 1.1-4.94 1.56-0.875 0.249-1.75 0.498-2.65 0.754-1.19 0.338-1.19 0.338-2.41 0.684-0.99 0.33-1.98 0.66-3 1v2c-1.28 0.597-1.28 0.597-2.59 1.21-1.1 0.53-2.21 1.06-3.35 1.61-1.1 0.522-2.2 1.04-3.34 1.58-3.01 1.37-3.01 1.37-3.72 4.61 0.66 0.33 1.32 0.66 2 1-3.47 0.495-3.47 0.495-7 1-0.149 2.07-0.149 2.07 1 4 2.02 1.13 2.02 1.13 4 2-1.11 0.557-2.23 1.11-3.38 1.69-2.78 1.57-3.53 2.13-5.06 5.06-0.186 0.742-0.371 1.49-0.562 2.25h-2v10h-2c-0.99-4.46-0.99-4.46-2-9-6.06 0.467-10.6 3.21-15.9 6.06-1.9 1.01-3.79 2.03-5.69 3.04-1.39 0.747-1.39 0.747-2.82 1.51-3.47 1.84-6.97 3.59-10.5 5.33-6.68 3.3-13.3 6.73-19.9 10.2-7.71 4.04-15.4 8.02-23.2 11.9-2.65 1.31-5.29 2.62-7.94 3.94-0.676 0.335-1.35 0.67-2.05 1.01-5.52 2.75-10.9 5.72-16.2 8.8-2.98 1.34-4.55 1.74-7.77 1.25-2.29-1.22-2.29-1.22-5-3-1.33-0.72-2.66-1.43-4-2.12-0.724-0.378-1.45-0.757-2.19-1.15-1.49-0.778-2.99-1.55-4.48-2.33-4.3-2.25-8.35-4.63-12.3-7.4 0.33-1.22 0.66-2.43 1-3.69 0.803-3.18 1.21-6.01 1-9.31 1.65 0.33 3.3 0.66 5 1v2c1.08 0.186 1.08 0.186 2.19 0.375 2.77 0.615 5.21 1.51 7.81 2.62v2c1.14 0.217 1.14 0.217 2.31 0.438 2.69 0.562 2.69 0.562 5.69 1.56v2c5.46 1.4 9.69 0.427 15-1v-2c2.43-1.17 4.87-2.34 7.31-3.5 0.69-0.334 1.38-0.668 2.09-1.01 5.26-2.49 5.26-2.49 8.6-2.49v-2l3.08-1.54c0.661-0.331 1.32-0.661 2-1 1.45-0.726 2.91-1.45 4.36-2.18 3.41-1.7 6.81-3.4 10.2-5.15 1.05-0.539 2.1-1.08 3.18-1.63 1.4-0.727 1.4-0.727 2.83-1.47 2.36-1.03 2.36-1.03 5.36-1.03v-2c0.655-0.312 1.31-0.625 1.98-0.946 3.01-1.43 6.01-2.87 9.02-4.3 1.03-0.491 2.06-0.982 3.12-1.49 4.53-2.16 9.04-4.33 13.5-6.62 3.38-1.64 3.38-1.64 5.38-1.64v-2c2.12-1 4.25-2 6.38-3 1.18-0.557 2.37-1.11 3.59-1.69 3.04-1.31 3.04-1.31 5.04-1.31v-2c0.681-0.257 1.36-0.513 2.06-0.777 6.93-2.74 13.3-5.99 19.7-9.7 7.25-4.16 14.7-7.85 22.2-11.5 1.77-0.873 3.54-1.75 5.31-2.62 0.761-0.376 1.52-0.753 2.3-1.14 3.75-1.94 7.39-4.07 11-6.2 2.35-1.04 2.35-1.04 5.35-0.0391z" fill="#DDDEDF"/>
<path transform="translate(874,434)" d="m0 0v2c0.704 0.116 1.41 0.232 2.13 0.352 3.11 0.703 5.81 1.77 8.74 3.02 0.987 0.42 1.97 0.84 2.99 1.27 2.16 0.931 4.31 1.87 6.46 2.8 3.37 1.42 6.76 2.75 10.2 4.05 6.47 2.46 12.7 5 18.8 8.24 4.28 2.04 8.74 3.61 13.2 5.2 3.11 1.12 5.68 2.21 8.44 4.05 2.64 0.818 5.3 1.38 8 2v2c0.736 0.182 1.47 0.364 2.23 0.551 5.1 1.31 9.31 2.59 13.8 5.45 5.78 2.6 11.6 4.59 17.8 6.19 2.49 0.905 4.12 2.22 6.23 3.81 2.34 0.98 2.34 0.98 4.75 1.69 1.2 0.377 1.2 0.377 2.42 0.762 0.603 0.182 1.21 0.364 1.83 0.551v2c0.615 0.121 1.23 0.242 1.86 0.367 0.808 0.168 1.62 0.335 2.45 0.508 0.801 0.162 1.6 0.325 2.43 0.492 2.26 0.633 2.26 0.633 5.26 2.63 1.66 0.385 3.32 0.728 5 1v2c3.3 0.66 6.6 1.32 10 2v2c1.1 0.273 1.1 0.273 2.23 0.551 5.09 1.31 9.33 2.57 13.8 5.45 2.69 0.707 2.69 0.707 5 1v2c2.31 0.33 4.62 0.66 7 1v3l2 1c0.875 2.25 0.875 2.25 1 5-2.53 4.26-5.45 6.16-10 8h-3v2c-2.97 0.99-5.94 1.98-9 3v2c-0.969 0.289-1.94 0.577-2.94 0.875-3.17 0.767-3.17 0.767-4.06 3.12-1.93 0.781-1.93 0.781-4.31 1.5-4.16 1.26-7.57 2.39-10.7 5.5-2.06 0.569-4.12 0.949-6.22 1.34-0.88 0.327-0.88 0.327-1.78 0.66-0.33 0.99-0.66 1.98-1 3-0.763 0.103-1.53 0.206-2.31 0.312-2.7 0.44-2.7 0.44-4.12 2.19-2.26 2.17-4.52 2.11-7.56 2.5-0.99 0.495-0.99 0.495-2 1-2.67 0.134-5.32 0.0432-8 0 0.33-0.66 0.66-1.32 1-2l-2-2c2.36-2.36 3.78-2.49 7-3 0.0947-0.905 0.0947-0.905 0.191-1.83 1.15-3.09 2.8-3.55 5.75-4.92 0.896-0.428 1.79-0.856 2.71-1.3 2.35-0.953 2.35-0.953 4.35-0.953v-2c2.94-2.18 5.85-3.29 9.31-4.31 5.06-1.59 8.62-4.38 12.7-7.69 3-2 3-2 4.81-2.31 4.45-1.4 7.72-5.2 10.9-8.5 2.31-2.19 2.31-2.19 5.31-2.19-3.53-3.07-6.67-4.86-11.1-6.44-5.38-1.98-10.7-4.08-16-6.31-2.03-0.856-4.07-1.7-6.12-2.54-5.02-2.06-9.92-4.2-14.7-6.68-5.89-2.87-12-5.3-18.2-7.54-3.12-1.14-6.11-2.48-9.12-3.88-4.01-1.85-8.05-3.51-12.2-5.06-4.38-1.65-8.64-3.45-12.9-5.44-7.8-3.67-15.8-6.88-23.8-10.1-16.3-6.66-16.3-6.66-22.3-9.44-6.15-2.86-12.5-5.31-18.8-7.8-0.833-0.329-1.67-0.658-2.52-0.996-0.747-0.293-1.49-0.586-2.26-0.887-2.12-0.882-2.12-0.882-4.19-1.97-3.74-1.78-7.32-1.44-11.2-0.158-2.59 1.06-5.13 2.2-7.66 3.37-1.87 0.832-3.73 1.66-5.6 2.49-0.921 0.408-1.84 0.816-2.79 1.24-4.96 2.14-10 3.95-15.1 5.76-2.56 1-4.88 2.03-7.31 3.27-4.93 2.52-10 4.55-15.2 6.61-6.74 2.72-13.4 5.51-20.1 8.5-2.08 0.927-4.16 1.85-6.25 2.75-0.975 0.428-1.95 0.856-2.95 1.3-2.8 0.955-4.86 1.15-7.8 0.953-0.33-0.66-0.66-1.32-1-2 1.49-0.495 1.49-0.495 3-1 0.33-0.66 0.66-1.32 1-2 1.93-0.764 3.86-1.52 5.81-2.21 1.97-0.715 3.9-1.56 5.81-2.42 3.18-1.3 5.98-1.96 9.38-2.38 0.33-0.99 0.66-1.98 1-3 5.45-0.99 5.45-0.99 11-2v-2c0.592-0.182 1.18-0.364 1.79-0.551 0.79-0.251 1.58-0.503 2.39-0.762 0.777-0.244 1.55-0.487 2.36-0.738 2.51-0.884 2.51-0.884 4.79-2.38 3.27-1.92 6.68-3.13 10.2-4.38 5.15-1.86 10-3.88 14.9-6.44 4.85-2.53 9.18-3.85 14.6-4.75v-2c6.52-2.31 11.3-2.22 18 0z" fill="#0D0E10"/>
<path transform="translate(1592,1584)" d="m0 0c6.72 0.72 6.72 0.72 8 2v14h-1600c0.33-0.66 0.66-1.32 1-2 787 0.495 787 0.495 1590 1-0.33-2.31-0.66-4.62-1-7 0.643-6.64 0.643-6.64 2-8z" fill="#050608"/>
<path transform="translate(875 691)" d="m0 0c4.84 3.63 9.81 8.24 11.8 14.1 1.03 7.35 2.15 15.9-2.2 22.2-2.5 2.17-5.04 4-7.8 5.82-0.495 0.99-0.495 0.99-1 2-2.8 0.414-2.8 0.414-6.31 0.625-1.73 0.112-1.73 0.112-3.49 0.227-2.4 0.111-4.8 0.148-7.2 0.148v-2c-3.87-1.08-5.52-0.946-9 1-1.34-1.09-2.67-2.2-4-3.31-0.742-0.615-1.49-1.23-2.25-1.86-1.75-1.82-1.75-1.82-1.75-4.82h3c-0.33-0.742-0.66-1.49-1-2.25-1.85-6.95-2.21-15.2 1-21.8 0.66-0.33 1.32-0.66 2-1 0.309-0.66 0.619-1.32 0.938-2 1.06-2 1.06-2 4.06-3 0.66-0.99 1.32-1.98 2-3 6.35-3.18 14.5-3 21.2-1.06z" fill="#FAFBFC"/>
<path transform="translate(978,567)" d="m0 0h3c-0.00786 1.22-0.00786 1.22-0.0159 2.46-0.0207 3.66-0.0338 7.32-0.0466 11-0.0126 1.92-0.0126 1.92-0.0254 3.88-0.00483 1.82-0.00483 1.82-0.00977 3.68-0.00786 1.69-0.00786 1.69-0.0159 3.41-0.182 2.52-0.182 2.52 1.11 3.59 0.0928 1.38 0.117 2.77 0.114 4.15-1.13e-4 1.32-1.13e-4 1.32-2.29e-4 2.67-0.00516 0.957-0.0103 1.91-0.0156 2.9-0.00141 0.975-0.00283 1.95-0.00429 2.96-0.00562 3.13-0.0182 6.26-0.0309 9.38-0.00501 2.12-0.00958 4.23-0.0137 6.35-0.0111 5.2-0.0283 10.4-0.0488 15.6 3.63-0.99 7.26-1.98 11-3-1.65-0.66-3.3-1.32-5-2 0.14-1.48 0.288-2.96 0.438-4.44 0.122-1.24 0.122-1.24 0.246-2.5 0.316-2.07 0.316-2.07 1.32-3.07 2.44-0.25 2.44-0.25 5 0 2 3 2 3 1.62 6.19-0.309 1.39-0.309 1.39-0.625 2.81 1.9-0.284 3.79-0.578 5.69-0.875 1.06-0.162 2.11-0.325 3.2-0.492 3.08-0.527 3.08-0.527 5.71-1.68 5.3-2.1 11.3-1.74 16.6 0.422 5.1 2.97 8.35 7.32 10.8 12.6 1.77 7.58 1.6 14.1-2 21-0.99 0.495-0.99 0.495-2 1-0.621-4.27-1.04-8.25-0.875-12.6 0.0268-5.2-1.16-9.13-4.6-13.2-3.55-3.41-6.25-4.84-11.3-5.32-4.13 0.0988-7.72 1.58-11.5 3.05-0.864 0.319-1.73 0.638-2.62 0.966-1.8 0.666-3.6 1.34-5.39 2.02-2.58 0.974-5.16 1.92-7.75 2.86-4.65 1.69-9.29 3.41-13.9 5.15-0.657 0.245-1.31 0.49-1.99 0.743-5.83 2.18-11.5 4.41-17 7.26 1.03 0.784 2.06 1.57 3.12 2.38 5.21 4.45 9.67 10.8 10.9 17.6 0.0389 2.33 0.0449 4.67 0 7-2.64-1.61-3.83-2.52-4.87-5.49-0.187-0.932-0.374-1.86-0.566-2.82-1.26-5.21-2.79-7.92-6.56-11.7-0.66-0.66-1.32-1.32-2-2-2.99-1.99-5.6-2.94-9-4v3c-0.753 0.147-1.51 0.294-2.28 0.445-7.35 1.55-14.1 3.66-21.1 6.48-3.24 1.29-6.09 2.13-9.56 2.62-1.02 0.147-2.04 0.294-3.09 0.445-0.33 0.66-0.66 1.32-1 2-2 0.668-2 0.668-4.44 1.19-0.803 0.179-1.61 0.358-2.43 0.543-2.13 0.27-2.13 0.27-4.13-0.73v3c-3.47 0.99-3.47 0.99-7 2v-2c-0.66-0.66-1.32-1.32-2-2 1.25-0.508 2.5-1.01 3.75-1.5 0.696-0.278 1.39-0.557 2.11-0.844 2.14-0.656 2.14-0.656 6.14-0.656v-2c10-3.33 20-6.67 30-10v-2h-2v-7c3.38-0.188 3.38-0.188 7 0 0.99 1.49 0.99 1.49 2 3h-2l-1 4h3c0.33 0.99 0.66 1.98 1 3v-4c0.641-0.254 1.28-0.508 1.94-0.77 0.865-0.344 1.73-0.688 2.62-1.04 0.847-0.336 1.69-0.673 2.57-1.02 2.09-0.849 4.16-1.73 6.22-2.64 3.78-1.59 7.57-2.94 11.5-4.22 0.667-0.225 1.33-0.45 2.02-0.682 4.91-1.63 4.91-1.63 7.17-1.63-0.00524-1.18-0.0105-2.35-0.0159-3.57-0.175-43.1-0.175-43.1 1.02-63.4h2v-10z" fill="#0E0F11"/>
<path transform="translate(1019,752)" d="m0 0c1 1 1 1 1.1 4.6-0.00667 1.49-0.0186 2.98-0.0352 4.46-0.00451 0.759-0.00902 1.52-0.0137 2.3-0.0118 1.88-0.0298 3.76-0.0488 5.64-0.569 0.0752-1.14 0.15-1.72 0.228-2.61 0.351-5.23 0.718-7.84 1.08-0.895 0.118-1.79 0.236-2.71 0.357-11.6 1.66-20.6 6.4-28.3 15.4-1.51 1.93-1.51 1.93-2.52 4.15-0.93 1.82-0.93 1.82-2.93 2.82-0.689 2.35-0.689 2.35-1.12 5.06-0.168 0.919-0.335 1.84-0.508 2.79-0.121 0.71-0.242 1.42-0.367 2.15h-1c0.33-3.3 0.66-6.6 1-10-0.66-0.33-1.32-0.66-2-1l1-1c-2.31-0.33-4.62-0.66-7-1v2c1.49-0.495 1.49-0.495 3-1v3c-4.75-0.75-4.75-0.75-7-3-0.195-2.82-0.195-2.82-0.125-6.12 0.018-1.1 0.0361-2.19 0.0547-3.32 0.0232-0.843 0.0464-1.69 0.0703-2.55 4.62-2.12 4.62-2.12 8-1 0.33-1.32 0.66-2.64 1-4 0.228 2.05 0.456 4.1 0.684 6.15 0.135 1.86 0.135 1.86 1.32 2.85 0.66-1.98 1.32-3.96 2-6h-2c1.44-2.89 3.72-4.72 6-7 0.898-1.14 1.79-2.29 2.69-3.44 8.95-10.6 25.7-15.9 39.3-14.6z" fill="#F9FAFB"/>
<path transform="translate(1049,508)" d="m0 0c0.495 0.99 0.495 0.99 1 2 2.32 0.407 4.66 0.744 7 1v3l2 1c0.875 2.25 0.875 2.25 1 5-2.53 4.26-5.45 6.16-10 8h-3v2c-2.97 0.99-5.94 1.98-9 3v2c-0.969 0.289-1.94 0.577-2.94 0.875-3.17 0.767-3.17 0.767-4.06 3.12-1.93 0.781-1.93 0.781-4.31 1.5-4.16 1.26-7.57 2.39-10.7 5.5-2.06 0.569-4.12 0.949-6.22 1.34-0.587 0.218-1.17 0.436-1.78 0.66-0.33 0.99-0.66 1.98-1 3-1.14 0.155-1.14 0.155-2.31 0.312-2.7 0.44-2.7 0.44-4.12 2.19-2.26 2.17-4.52 2.11-7.56 2.5l-2 1c-2.67 0.134-5.32 0.0432-8 0 0.33-0.66 0.66-1.32 1-2l-2-2c2.36-2.36 3.78-2.49 7-3 0.0632-0.603 0.126-1.21 0.191-1.83 1.15-3.09 2.8-3.55 5.75-4.92 0.896-0.428 1.79-0.856 2.71-1.3 2.35-0.953 2.35-0.953 4.35-0.953v-2c2.94-2.18 5.85-3.29 9.31-4.31 5.06-1.59 8.62-4.38 12.7-7.69 3-2 3-2 4.81-2.31 4.45-1.4 7.72-5.2 10.9-8.5 2.31-2.19 2.31-2.19 5.31-2.19-0.495-0.99-0.495-0.99-1-2h2v-2h3v-2z" fill="#111214"/>
<path transform="translate(673,756)" d="m0 0c2 2 2 2 2.24 4.48-0.00666 1.57-0.00666 1.57-0.0135 3.16-1.51e-4 1.18-3.02e-4 2.36-4.58e-4 3.58-0.0103 1.28-0.0206 2.56-0.0313 3.88-0.00283 1.31-0.00566 2.61-0.00858 3.96-0.00764 3.48-0.0273 6.95-0.0494 10.4-0.0205 3.55-0.0296 7.09-0.0397 10.6-0.0215 6.96-0.0556 13.9-0.0977 20.9h-1v-15h-2c-0.11-1.23-0.219-2.46-0.332-3.73-0.16-1.63-0.32-3.27-0.48-4.9-0.0703-0.808-0.141-1.62-0.213-2.45-0.5-4.92-1.41-8.59-3.97-12.9h2v-2c-0.619 0.206-1.24 0.413-1.88 0.625-0.701 0.124-1.4 0.247-2.12 0.375l-2-2h-3c-1.19 2.38-1.17 3.95-1.25 6.61-0.0317 0.967-0.0633 1.93-0.0959 2.93-0.0315 1.06-0.063 2.12-0.0955 3.21-0.331 9.81-0.908 19.6-1.62 29.4-0.665 9.34-1.12 18.6-1.12 28-7.25e-4 0.948-0.00145 1.9-0.0022 2.87 0.0319 3.87 0.183 7.25 1.19 11 0.584 7.49-0.588 14.7-2 22h-1c-0.895-6.87-1.14-13.6-1.11-20.5-1.46e-4 -1.11-2.92e-4 -2.23-4.43e-4 -3.37 6.93e-4 -3.65 0.00845-7.3 0.0163-11 0.00187-2.54 0.00329-5.09 0.00429-7.63 0.00342-5.99 0.0113-12 0.0213-18 0.0112-6.83 0.0167-13.7 0.0217-20.5 0.0104-14 0.028-28.1 0.0503-42.1 0.843-0.0606 1.69-0.121 2.55-0.184 1.1-0.0838 2.19-0.168 3.32-0.254 1.09-0.0812 2.18-0.162 3.3-0.246 3.92-0.44 6.7-1.57 10.8-1.32z" fill="#FAFBFC"/>
<path transform="translate(373,765)" d="m0 0v2h-2c-0.33 1.32-0.66 2.64-1 4h2c0.33 0.99 0.66 1.98 1 3 0.99 0.66 1.98 1.32 3 2 0.408 2.71 0.133 5.24 0 8-1.32 0.33-2.64 0.66-4 1-0.0825 0.949-0.165 1.9-0.25 2.88-0.75 3.12-0.75 3.12-2.56 4.5-2.19 0.625-2.19 0.625-6.19 0.625 0.33 0.99 0.66 1.98 1 3-0.938 2.19-0.938 2.19-2 4h-8v5c1.65 0.33 3.3 0.66 5 1v8c-1.05-0.0206-2.1-0.0412-3.19-0.0625-3.14 0.0515-5.78 0.328-8.81 1.06-1.23-6.99-0.284-11.4 2-18 0.217-0.694 0.433-1.39 0.656-2.1 3.26-10.3 8.53-22.9 18.2-28.6 3.12-1.31 3.12-1.31 5.12-1.31z" fill="#F9FAFB"/>
<path transform="translate(828,758)" d="m0 0c-0.66 1.32-1.32 2.64-2 4h-3c0.33 0.99 0.66 1.98 1 3-0.938 2.69-0.938 2.69-2 5h-4c0.107 0.797 0.214 1.59 0.324 2.41 1.19 10.5 1.19 10.5-2.32 15.6-0.66 0.99-1.32 1.98-2 3-3.62 0.188-3.62 0.188-7 0-0.33 0.99-0.66 1.98-1 3-1.93 0.59-1.93 0.59-4.31 0.938-4.04 0.753-6.11 1.7-8.69 5.06-0.652-12.2 5.06-20.4 12.6-29.6 5.91-6.46 13.2-13.2 22.4-12.4z" fill="#FAFBFC"/>
<path transform="translate(656 707)" d="m0 0c0.827 0.0105 1.65 0.0209 2.51 0.0317 0.896 0.00645 1.79 0.0129 2.71 0.0195 1.41 0.0251 1.41 0.0251 2.84 0.0508 0.945 0.00902 1.89 0.018 2.86 0.0273 2.34 0.0236 4.67 0.0565 7.01 0.0977 1.25 2.5 1.11 4.21 1.1 7.01-0.00322 0.986-0.00645 1.97-0.00977 2.99-0.00838 1.03-0.0168 2.07-0.0254 3.13-0.00451 1.04-0.00902 2.08-0.0137 3.15-0.0118 2.57-0.0283 5.15-0.0488 7.72-1.3-0.0206-2.6-0.0412-3.94-0.0625-1.35-0.0215-2.71-0.00898-4.06 0.0625-0.33 0.33-0.66 0.66-1 1-1.98 0.125-3.96 0.176-5.94 0.188-1.08 0.0142-2.16 0.0284-3.28 0.043-2.79-0.23-2.79-0.23-4.79-2.23-0.259-2.12-0.259-2.12-0.266-4.72-0.00258-0.932-0.00516-1.86-0.00781-2.82 0.00773-0.976 0.0155-1.95 0.0234-2.96-0.00773-0.976-0.0155-1.95-0.0234-2.96 0.00258-0.932 0.00516-1.86 0.00781-2.82 0.00226-0.857 0.00451-1.71 0.00684-2.6 0.363-2.98 1.32-4.02 4.32-4.35z" fill="#DEDFE0"/>
<path transform="translate(717,549)" d="m0 0c4 1 4 1 5 2 0.0639 2.54 0.0663 5.04 0.0273 7.58-0.0127 1.57-0.025 3.14-0.0371 4.71-0.0248 2.48-0.0527 4.96-0.0862 7.44-0.0303 2.39-0.048 4.78-0.0642 7.17-0.0135 0.737-0.0269 1.47-0.0408 2.23-0.0256 5.28 0.753 8.85 3.81 13.1 1.96 3.88 1.71 7.27 1.57 11.6-0.0203 1.18-0.0203 1.18-0.041 2.39-0.0351 1.93-0.089 3.87-0.146 5.8-2-1-2-1-3-4-0.66-0.33-1.32-0.66-2-1v5c-2.37 0.125-2.37 0.125-5 0-0.66-0.66-1.32-1.32-2-2-0.33 2.97-0.66 5.94-1 9-1.32-0.33-2.64-0.66-4-1 0.165-1.2 0.33-2.39 0.5-3.62 0.732-6.45 0.583-12.9 0.5-19.4 1.32-0.66 2.64-1.32 4-2 0.66-14.9 1.32-29.7 2-45z" fill="#DDDEDF"/>
<path transform="translate(947,758)" d="m0 0c4.91 2.45 5.23 3.95 7 9 1.13 4.81 2.27 11.5 0 16h-3c0.00222 0.598 0.00444 1.2 0.00673 1.81 0.0222 6.25 0.0372 12.5 0.0482 18.7 0.00502 2.33 0.0118 4.66 0.0205 6.99 0.0122 3.35 0.0178 6.71 0.0222 10.1 0.00516 1.04 0.0103 2.07 0.0156 3.14 4.02e-4 5.21-0.362 10.1-1.11 15.3-0.123 3.38-0.0933 6.75-0.0625 10.1 0.00379 0.955 0.00757 1.91 0.0115 2.89 0.0122 3.03 0.0308 6.07 0.051 9.1 0.0266 4 0.0466 8.01 0.0625 12 0.0083 0.915 0.0166 1.83 0.0251 2.77 0.016 4.17-0.0178 8.03-1.09 12.1-0.66-0.33-1.32-0.66-2-1v-129z" fill="#FAFBFC"/>
<path transform="translate(946,702)" d="m0 0c0.495 1.49 0.495 1.49 1 3-2.97 0.99-5.94 1.98-9 3v3h-2l-1-1c-0.33 0.99-0.66 1.98-1 3-2.31 0.33-4.62 0.66-7 1v2c-0.507 0.211-1.01 0.422-1.54 0.639-10.2 4.27-20.4 8.61-30.5 13.4l-1-2c-0.433 0.495-0.866 0.99-1.31 1.5-1.69 1.5-1.69 1.5-4.69 1.5v2c-0.784 0.124-1.57 0.247-2.38 0.375-2.77 0.416-2.77 0.416-4.62 2.62h-3c-0.33 0.99-0.66 1.98-1 3-2.71 0.0271-5.42 0.0469-8.12 0.0625-0.761 0.00838-1.52 0.0168-2.3 0.0254-4.31 0.0186-8.33-0.227-12.6-1.09-0.495-1.49-0.495-1.49-1-3 0.33-0.66 0.66-1.32 1-2-0.66-0.33-1.32-0.66-2-1 2.11 0.453 3.79 0.866 5.62 2.03 3.49 1.42 6.92 1.18 10.6 1.09 1.12-0.0135 1.12-0.0135 2.26-0.0273 1.83-0.0235 3.66-0.0593 5.49-0.0977 0.238-0.572 0.477-1.14 0.723-1.73 1.54-2.74 3.37-4.43 5.71-6.52 0.782-0.706 1.56-1.41 2.37-2.14 2.19-1.61 2.19-1.61 5.19-1.61v2c5.82-1.85 11.3-4.12 16.8-6.94 4.11-2.09 8.36-3.59 12.7-5.12 2.97-1.1 5.74-2.47 8.55-3.94 0.762-0.304 1.52-0.608 2.31-0.922 3.83-1.53 7.53-3.31 11.3-5.05 2.43-1.02 2.43-1.02 4.43-1.02z" fill="#0A0B0D"/>
<path transform="translate(1166,838)" d="m0 0h1c0.33 5.94 0.66 11.9 1 18h9c0.987 3.77 1.17 5.58-0.312 9.25-1.69 2.75-1.69 2.75-3.69 4.75-3.12 0.125-3.12 0.125-6 0-0.33 0.99-0.66 1.98-1 3-4.07 1.49-7.67 2.26-12 2v3c-2.41 1.2-3.95 1.1-6.62 1.06-1.23-0.0135-1.23-0.0135-2.48-0.0273-0.626-0.0116-1.25-0.0232-1.9-0.0352v-6c0.66-0.0825 1.32-0.165 2-0.25 3.39-0.847 6.08-2.24 9.13-3.91 1.87-0.84 1.87-0.84 4.87-0.84 1.01-3.05 1.01-3.05 0-6-1.32 0.33-2.64 0.66-4 1 0.25-2.31 0.25-2.31 1-5 0.629-0.443 1.26-0.887 1.91-1.34 2.59-2.05 3.23-3.77 4.34-6.84 0.503-1.35 0.503-1.35 1.02-2.73 0.364-1.03 0.364-1.03 0.734-2.08h1c0.33-2.31 0.66-4.62 1-7z" fill="#FAFBFC"/>
<path transform="translate(948,657)" d="m0 0c4.33 0.305 7.79 0.881 11.1 3.89 5.62 7.08 8.26 14.3 9.95 23.1h2v7c-1.98 0.495-1.98 0.495-4 1-0.33 1.32-0.66 2.64-1 4h2c0.33-0.66 0.66-1.32 1-2 0.99 0.33 1.98 0.66 3 1-7.57 4.67-15.8 7.98-24 11.4-0.647 0.275-1.29 0.55-1.96 0.833-4.69 1.91-4.69 1.91-8.04 0.792 5.62-3 5.62-3 9-3 0.33-1.32 0.66-2.64 1-4 2.48-0.495 2.48-0.495 5-1v-2c2.65-1.46 3.89-2 7-2-0.149-13.2-0.514-23.9-10-34-0.66-0.33-1.32-0.66-2-1v-4z" fill="#D3D4D5"/>
<path transform="translate(870,497)" d="m0 0c4.72 5.33 8 12.9 8 20-17.6 0.413-17.6 0.413-25.2-3-3.48-1.25-6.94-1.7-10.6-2.12-0.693-0.0864-1.39-0.173-2.1-0.262-1.7-0.21-3.39-0.413-5.09-0.613 0-3 0-3 2-5 4.07-0.207 7.6-0.0618 11.6 0.562 3.67 0.476 5.89 0.726 9.38-0.562 1.54-1.98 2.74-3.98 3.92-6.19 1.94-3.26 4.54-3.55 8.08-2.81z" fill="#D4D5D6"/>
<path transform="translate(568,754)" d="m0 0c-0.206 1.05-0.413 2.1-0.625 3.19-0.38 3.86-0.0245 5.42 1.62 8.81v2c-0.918 0.098-1.84 0.196-2.78 0.297-7.29 0.889-12.9 2.03-19.2 5.7h-2v-2c-5.48-0.743-5.48-0.743-11-1-0.66 1.32-1.32 2.64-2 4-0.33-0.99-0.66-1.98-1-3 3.08-5.35 7.7-8.2 13-11 0.71-0.731 0.71-0.731 1.43-1.48 6.06-5.89 14.7-6.92 22.6-5.52z" fill="#FAFBFC"/>
<path transform="translate(955,623)" d="m0 0c3 1.94 3 1.94 5 5 0.847 4.43 0.317 8.07-1.12 12.3-3.07 4.4-6.71 6.54-11.9 7.69-0.33 0.66-0.66 1.32-1 2-2.5 0.688-2.5 0.688-5 1-2.29-2.29-1.31-8.21-1.32-11.4 0.0871-5.86 0.851-9.73 4.32-14.6 3.7-2.46 6.71-2.78 11-2z" fill="#FBFCFD"/>
<path transform="translate(921,631)" d="m0 0c5.1 3.48 7.88 9.31 10 15 0.357 2.52 0.277 4.45 0 7-8.4 0.372-14.7 0.622-21.4-5-3.06-3.76-2.87-7.32-2.62-12 0.812-2.38 0.812-2.38 2-4 4.08-1.36 7.74-1.63 12-1z" fill="#FBFCFD"/>
<path transform="translate(766 496)" d="m0 0c2.5 0.125 2.5 0.125 3.5 1.12 2.46 0.179 4.91 0.306 7.38 0.406 9.61 0.479 19 1.73 28.6 3.09 3.2 0.451 6.39 0.898 9.59 1.34 0.749 0.105 1.5 0.21 2.27 0.318 5.39 0.748 10.8 1.36 16.2 1.84 0.99 2.97 0.99 2.97 2 6-5.09 0.128-9.89-0.326-14.9-1.21-0.739-0.125-1.48-0.25-2.24-0.38-2.37-0.404-4.75-0.815-7.12-1.23-2.44-0.416-4.87-0.829-7.31-1.24-1.6-0.272-3.2-0.544-4.8-0.817-6.12-1.05-12.3-2.05-18.4-3-1.15-0.179-1.15-0.179-2.32-0.363-1.64-0.256-3.29-0.509-4.93-0.762v-2c-1.14 0.278-1.14 0.278-2.31 0.562-3.86 0.628-5.46-0.411-8.69-2.56 1-1 1-1 3.5-1.12z" fill="#07080A"/>
<path transform="translate(722,608)" d="m0 0c0.99 0.33 1.98 0.66 3 1 0.33 0.99 0.66 1.98 1 3 0.66 0.33 1.32 0.66 2 1 2.23 4.84 2 8.7 2 14-2.4 1.2-3.89 1.11-6.57 1.1-0.896-0.00322-1.79-0.00645-2.71-0.00977-0.937-0.00838-1.87-0.0168-2.84-0.0254-0.945-0.00451-1.89-0.00902-2.86-0.0137-2.34-0.0118-4.67-0.0297-7.01-0.0488 0.33-3.3 0.66-6.6 1-10 2.48 0.99 2.48 0.99 5 2v-9c0.66-0.33 1.32-0.66 2-1 0.33 0.66 0.66 1.32 1 2 2.53 0.656 2.53 0.656 5 1v-5z" fill="#121315"/>
<path transform="translate(1025,669)" d="m0 0c-0.188 1.88-0.188 1.88-1 4-2.5 1.12-2.5 1.12-5 2-0.33 0.66-0.66 1.32-1 2h-6v2c-5.24 2.34-10.5 4.24-16 6-1.18 0.392-2.35 0.784-3.56 1.19-0.804 0.268-1.61 0.536-2.44 0.812-0.33-0.66-0.66-1.32-1-2-0.0361 0.605-0.0722 1.21-0.109 1.83-0.891 2.17-0.891 2.17-3.66 3.62-1.15 0.409-2.3 0.817-3.48 1.24-1.14 0.416-2.28 0.833-3.45 1.26-2.78 0.885-5.43 1.55-8.3 2.05-1.34 0.325-2.67 0.655-4 1 0.285-1.88 0.285-1.88 1-4 5.71-3.32 11.9-5.59 18-8 3.26-1.31 6.4-2.62 9.38-4.5 2.97-1.7 5.9-2.65 9.15-3.68 4.97-1.65 9.96-3.5 14.6-5.93 2.38-1.12 4.28-1.03 6.88-0.887z" fill="#2B2C2E"/>
<path transform="translate(403,752)" d="m0 0c0.33 1.32 0.66 2.64 1 4h-4c0.62 1.29 1.25 2.59 1.88 3.88 0.348 0.719 0.696 1.44 1.05 2.18 1.04 2.1 1.04 2.1 3.07 3.95 1.99 0.398 3.99 0.738 6 1v1c-2.44 0.222-4.87 0.428-7.31 0.625-1.04 0.0967-1.04 0.0967-2.09 0.195-3.85 0.298-5.28 0.387-8.6-1.82-2.03-0.225-4.05-0.449-6.08-0.656-2.57-0.46-3.96-1.66-5.92-3.34-1.65-0.712-3.31-1.39-5-2 1.86-3.72 6.62-4.43 10.3-5.82 5.15-1.66 10.3-2.53 15.7-3.18z" fill="#FAFBFC"/>
<path transform="translate(979,426)" d="m0 0h3c0.25 7.62 0.25 7.62-2 11 1.32 0.33 2.64 0.66 4 1-0.33 0.66-0.66 1.32-1 2-1.65 0.33-3.3 0.66-5 1 0.66 3.3 1.32 6.6 2 10-0.99-0.33-1.98-0.66-3-1v-2c-3.51 0-6.56 0.375-10 1-3.05-7.5-3.34-13.9-3-22 2.63 1.52 4.84 2.84 7 5 2.02-0.338 2.02-0.338 4-1h2c0.66-1.65 1.32-3.3 2-5z" fill="#2B2C2E"/>
<path transform="translate(1019,752)" d="m0 0c1 1 1 1 1.1 4.6-0.00667 1.49-0.0186 2.98-0.0352 4.46-0.00451 0.759-0.00902 1.52-0.0137 2.3-0.0118 1.88-0.0298 3.76-0.0488 5.64-2.46 0.362-4.92 0.715-7.38 1.06-0.699 0.104-1.4 0.208-2.12 0.314-5.28 0.736-5.28 0.736-7.51-0.377 0.257-1.44 0.531-2.88 0.812-4.31 0.151-0.801 0.302-1.6 0.457-2.43 0.806-2.5 1.75-3.59 3.73-5.26-1.98-0.66-3.96-1.32-6-2 0.33-0.99 0.66-1.98 1-3 5.33-0.907 10.6-1.39 16-1z" fill="#DEDFE0"/>
<path transform="translate(1007,756)" d="m0 0c0.99 1.49 0.99 1.49 2 3-0.99 0.66-1.98 1.32-3 2-0.798 2.42-0.798 2.42-1.19 5.12-0.238 1.37-0.238 1.37-0.48 2.76-0.164 1.05-0.164 1.05-0.332 2.12-0.675 0.193-1.35 0.387-2.05 0.586-1.34 0.391-1.34 0.391-2.7 0.789-0.882 0.255-1.76 0.51-2.67 0.773-2.34 0.773-4.41 1.69-6.58 2.85 0.66-0.99 1.32-1.98 2-3-0.66-0.99-1.32-1.98-2-3h2v-5c-2.97-0.495-2.97-0.495-6-1v-3c1.56-0.794 3.12-1.59 4.69-2.38 1.31-0.661 1.31-0.661 2.64-1.34 8.09-3.9 8.09-3.9 13.7-1.29z" fill="#FAFBFC"/>
<path transform="translate(1064,603)" d="m0 0c1.32 0.66 2.64 1.32 4 2v2c1.28-0.0206 2.56-0.0412 3.88-0.0625 3.88-0.0625 3.88-0.0625 6.12 1.06v3c2.47 0.495 2.47 0.495 5 1-0.33 0.99-0.66 1.98-1 3-2.06 0.688-2.06 0.688-4 1 0.33 0.99 0.66 1.98 1 3v4h2c0.33 1.32 0.66 2.64 1 4-1.88-0.25-1.88-0.25-4-1-1.25-2.06-1.25-2.06-2-4h-4c-0.701-0.186-1.4-0.371-2.12-0.562-1.95-0.666-1.95-0.666-3.88 0.562-0.99-0.99-1.98-1.98-3-3 0.33-0.66 0.66-1.32 1-2h2v-2h-2.75-7.25c0.66-0.99 1.32-1.98 2-3 1.95-0.293 1.95-0.293 4.12-0.188 1.28 0.0619 2.56 0.124 3.88 0.188v-2c-0.66-0.33-1.32-0.66-2-1h2c-0.66-0.99-1.32-1.98-2-3v-3z" fill="#202123"/>
<path transform="translate(956,622)" d="m0 0c3.15 2.56 5.77 4.77 6.2 8.95 0.105 5.12-0.322 8.61-3.2 13-0.66 0.33-1.32 0.66-2 1 0.33 1.65 0.66 3.3 1 5-13.7 6-13.7 6-17 6v4c-1.32-0.33-2.64-0.66-4-1h3v-2c-1.49 0.495-1.49 0.495-3 1 0-3 0-3 2-6l-1-1c-0.128-2.55-0.185-5.07-0.188-7.62-0.0122-0.7-0.0245-1.4-0.0371-2.12-0.0206-7.39 1.58-13.3 6.22-19.3 4.17-1.39 7.76-1.11 12 0zm-14 6c-2.42 4.56-2.23 8.79-2.12 13.8 0.00902 0.788 0.018 1.58 0.0273 2.39 0.0234 1.93 0.0593 3.87 0.0977 5.8h3 3c0.33-0.66 0.66-1.32 1-2 1.74-0.721 3.48-1.44 5.22-2.15 3.97-1.89 6.09-4.91 7.78-8.85 0.803-4.72 0.645-8.01-2-12.1-3.33-2.15-5.18-2.68-9.07-2.43-3.37 0.852-4.89 2.79-6.93 5.49z" fill="#D8D9DA"/>
<path transform="translate(276,708)" d="m0 0c5.78-0.12 11.3 0.168 17 1v1c-3.3 0.66-6.6 1.32-10 2-0.121 0.843-0.242 1.69-0.367 2.55-0.251 1.64-0.251 1.64-0.508 3.32-0.162 1.09-0.325 2.18-0.492 3.3-0.77 3.43-2.19 4.38-4.63 6.82-0.289 0.846-0.577 1.69-0.875 2.56-0.371 0.804-0.743 1.61-1.12 2.44-1.88 0.625-1.88 0.625-4 1-1.36 0.969-2.69 1.97-4 3 0.258-6.17 1.16-11.1 3.88-16.7 1.25-2.58 2.32-5.21 3.37-7.88 0.503-1.27 0.503-1.27 1.02-2.57 0.242-0.617 0.485-1.23 0.734-1.87z" fill="#FAFBFC"/>
<path transform="translate(931,650)" d="m0 0c3.38-0.188 3.38-0.188 7 0 0.66 0.99 1.32 1.98 2 3h-2c-0.33 1.32-0.66 2.64-1 4h3v4c-3.35 1.32-6.71 2.63-10.1 3.94-0.943 0.373-1.89 0.746-2.86 1.13-7.92 3.06-7.92 3.06-12.2 3.56-0.95 0.122-1.9 0.245-2.88 0.371-0.33 0.66-0.66 1.32-1 2-2 0.668-2 0.668-4.44 1.19-1.2 0.269-1.2 0.269-2.43 0.543-2.13 0.27-2.13 0.27-4.13-0.73v3c-2.31 0.66-4.62 1.32-7 2v-2c-0.66-0.66-1.32-1.32-2-2 1.25-0.508 2.5-1.01 3.75-1.5 0.696-0.278 1.39-0.557 2.11-0.844 2.14-0.656 2.14-0.656 6.14-0.656v-2c10-3.33 20-6.67 30-10v-2h-2v-7z" fill="#0F1012"/>
<path transform="translate(1394 756)" d="m0 0c2.67 0.0634 3.93 0.33 6.11 1.92 2.75 2.97 4.06 4.8 4.45 8.89-0.103 0.908-0.206 1.82-0.312 2.75 0.33 0.99 0.66 1.98 1 3-4.85 1.29-10 1.52-15 1-2-2-2-2-2.27-4.97 0.00516-1.17 0.0103-2.33 0.0156-3.53-0.00516-1.17-0.0103-2.33-0.0156-3.53 0.409-4.57 1.54-4.86 6.02-5.53z" fill="#DEDFE0"/>
<path transform="translate(1018 628)" d="m0 0c6.2 0.342 10.4 2.11 14.8 6.54 5.2 6.51 6.56 12.7 5.98 21-0.668 3.08-1.53 5.17-3 8l-2 1c-0.621-4.27-1.04-8.25-0.875-12.6 0.0268-5.2-1.16-9.13-4.6-13.2-4.35-4.18-7.57-4.98-13.5-5.27-1.34-0.302-2.68-0.615-4-1 1.7-3.64 3.36-4.34 7.19-4.5z" fill="#1D1E20"/>
<path transform="translate(985,762)" d="m0 0c0.33 0.66 0.66 1.32 1 2 3.03 0.658 3.03 0.658 6 1 0.0427 1.67 0.0406 3.33 0 5l-1 1 2 2c-1.56 2.39-2.73 3.85-5.25 5.25-4.02 2.56-6.74 6.1-9.75 9.75-0.66-0.99-1.32-1.98-2-3 0.66-0.33 1.32-0.66 2-1-0.33-0.99-0.66-1.98-1-3-0.0671-1.33-0.0852-2.67-0.0625-4 0.00902-0.681 0.018-1.36 0.0273-2.06 0.0116-0.639 0.0232-1.28 0.0352-1.94v-3c1.24-1.79 1.24-1.79 2.88-3.62 0.534-0.611 1.07-1.22 1.62-1.85 1.51-1.52 1.51-1.52 3.51-2.52z" fill="#DEDFE0"/>
<path transform="translate(868,877)" d="m0 0v2h2c1.24 3.58 0.951 6.36 0 10-3.25 2.17-4.29 2.27-8.06 2.25-0.878 0.00516-1.76 0.0103-2.66 0.0156-2.28-0.266-2.28-0.266-4.28-2.27-0.667-2-1.33-4-2-6-1.95-1.95-3.53-2.85-6-4 3.27-1.63 6.91-1.71 10.5-2.12 0.785-0.0993 1.57-0.199 2.38-0.301 5.88-0.696 5.88-0.696 8.12 0.426z" fill="#FAFBFC"/>
<path transform="translate(260,753)" d="m0 0h1c0.303 4.84-0.201 8.2-2.08 12.8-1.04 2.53-1.95 5.09-2.86 7.67-1.5 4.13-3.17 8.12-4.99 12.1-3.22 7.37-6.05 14.9-8.3 22.6-0.91 2.12-2.02 3.31-3.77 4.8h-1c0.114-1.63 0.242-3.25 0.375-4.88 0.0696-0.905 0.139-1.81 0.211-2.74 0.414-2.38 0.414-2.38 2.41-4.38 0.685-1.98 1.3-3.99 1.88-6 1.73-5.83 3.78-11.4 6.12-17 3.09-7.63 6.06-15.3 9-23h2v-2z" fill="#F6F7F8"/>
<path transform="translate(1050,888)" d="m0 0h70c0.495 1.49 0.495 1.49 1 3h-72c0.33-0.99 0.66-1.98 1-3z" fill="#040507"/>
<path transform="translate(759,415)" d="m0 0c0.99 0.33 1.98 0.66 3 1h3c3 1 3 1 4 3 1.9 0.465 1.9 0.465 4.06 0.625 1.3 0.124 2.6 0.248 3.94 0.375v1h-9c1.27 4.82 1.27 4.82 5 8-0.33 0.99-0.66 1.98-1 3-0.516-0.309-1.03-0.619-1.56-0.938-3.1-1.35-6.09-1.68-9.44-2.06-0.33 1.32-0.66 2.64-1 4-1.65-0.33-3.3-0.66-5-1 0.33-2.31 0.66-4.62 1-7-2.31-0.66-4.62-1.32-7-2 0.33-0.99 0.66-1.98 1-3h10c-0.33-1.65-0.66-3.3-1-5z" fill="#121315"/>
<path transform="translate(890,723)" d="m0 0v2c0.66 0.33 1.32 0.66 2 1 0.625 2.06 0.625 2.06 1 4-1.65 0.33-3.3 0.66-5 1v2c-1.18 0.186-1.18 0.186-2.38 0.375-2.77 0.416-2.77 0.416-4.62 2.62h-3c-0.33 0.99-0.66 1.98-1 3-2.71 0.0271-5.42 0.0469-8.12 0.0625-0.761 0.00838-1.52 0.0168-2.3 0.0254-4.31 0.0186-8.33-0.227-12.6-1.09-0.33-0.99-0.66-1.98-1-3 0.33-0.66 0.66-1.32 1-2-0.66-0.33-1.32-0.66-2-1 2.11 0.453 3.79 0.866 5.62 2.03 3.49 1.42 6.92 1.18 10.6 1.09 0.745-0.00902 1.49-0.018 2.26-0.0273 1.83-0.0235 3.66-0.0593 5.49-0.0977 0.358-0.859 0.358-0.859 0.723-1.73 1.54-2.74 3.37-4.43 5.71-6.52 1.17-1.06 1.17-1.06 2.37-2.14 2.19-1.61 2.19-1.61 5.19-1.61z" fill="#363739"/>
<path transform="translate(765,476)" d="m0 0h-2c-0.33 0.66-0.66 1.32-1 2-0.99 0.33-1.98 0.66-3 1-0.33 0.99-0.66 1.98-1 3-2.15 0.992-2.15 0.992-4.94 1.88-4.95 1.67-9.46 3.72-14.1 6.17-2 0.953-2 0.953-4 0.953v3l2 1c-1.18-0.0206-2.35-0.0412-3.56-0.0625-3.91-0.00697-7.58 0.42-11.4 1.06-0.33-0.99-0.66-1.98-1-3 7.62-4.64 15.7-7.7 24.2-10.3 2.02-0.654 2.02-0.654 3.81-2.71 0.681-0.165 1.36-0.33 2.06-0.5 0.639-0.165 1.28-0.33 1.94-0.5 0.33-0.66 0.66-1.32 1-2 1.74-0.668 1.74-0.668 3.88-1.19 0.699-0.179 1.4-0.358 2.12-0.543 2.01-0.27 2.01-0.27 5.01 0.73z" fill="#2D2E2F"/>
<path transform="translate(921,629)" d="m0 0c2.5 1.44 2.5 1.44 4 3v2h2c3.47 6.43 3.47 6.43 7 13l2-2c0.495 2.97 0.495 2.97 1 6-1.98-0.33-3.96-0.66-6-1-0.242-0.724-0.485-1.45-0.734-2.2-2.77-9.25-2.77-9.25-9.27-15.8-1.48-0.0953-2.96-0.13-4.44-0.125-0.782-0.00258-1.56-0.00516-2.37-0.00781-2.37 0.049-2.37 0.049-5.19 1.13-1.59 4.78-1.64 10.2 0 15 1.7 1.31 1.7 1.31 4 2 1.24 0.526 1.24 0.526 2.5 1.06 5.1 1.37 10.2 1.61 15.5 1.94v3c-8.08 0.674-13.7-1.56-21-5v-2h-2c-1.56-1-1.56-1-3-3-1.04-4.97-1.64-8.47 1-13 4.48-5.2 8.47-5.51 15-4z" fill="#DEDFE0"/>
<path transform="translate(506,758)" d="m0 0h20c0.66 1.32 1.32 2.64 2 4-3.19 1.59-6.63 1.1-10.1 1.06-2.6-0.0206-5.2-0.0412-7.88-0.0625-0.99 8.25-1.98 16.5-3 25h-1c-0.841-6.52-1.11-12.9-1.12-19.5-0.00451-0.802-0.00902-1.6-0.0137-2.43 0.0149-5.82 0.0149-5.82 1.14-8.07z" fill="#FBFCFD"/>
<path transform="translate(1135,786)" d="m0 0c0 3.79-0.425 7.27-1 11-3 0.965-5.04 1.22-8 0-1-3-1-3-0.0625-5.19 0.351-0.598 0.701-1.2 1.06-1.81-10-2.7-20.8-2.29-31.1-2.56-1.54-0.0433-3.09-0.0869-4.63-0.131-3.75-0.106-7.49-0.208-11.2-0.307v-1c4.32-0.145 8.64-0.287 13-0.427 1.46-0.0477 2.93-0.0962 4.39-0.146 26.2-0.88 26.2-0.88 37.7 0.573z" fill="#FBFCFD"/>
<path transform="translate(441,837)" d="m0 0c5.34-0.475 5.34-0.475 8 1.44 2 5.12-0.537 10.6-2.44 15.6-1.56 3-1.56 3-4.56 4v-2c-0.99-0.66-1.98-1.32-3-2 0.141-2.46 0.287-4.92 0.438-7.38 0.0393-0.699 0.0786-1.4 0.119-2.12 0.33-5.28 0.33-5.28 1.44-7.51z" fill="#050608"/>
<path transform="translate(425,877)" d="m0 0v2c0.516 0.392 1.03 0.784 1.56 1.19 1.44 1.81 1.44 1.81 1.12 5.5-0.227 1.09-0.454 2.19-0.688 3.31-1.44 0.0542-2.87 0.0929-4.31 0.125-0.801 0.0232-1.6 0.0464-2.43 0.0703-2.26-0.195-2.26-0.195-5.26-2.2-0.33-1.01-0.66-2.02-1-3.06-0.33-0.969-0.66-1.94-1-2.94-0.99-0.33-1.98-0.66-3-1 9.23-4.78 9.23-4.78 15-3z" fill="#F9FAFB"/>
<path transform="translate(1592,1584)" d="m0 0c6.88 0.875 6.88 0.875 8 2 0.0727 2.35 0.0837 4.71 0.0625 7.06-0.00902 1.29-0.018 2.58-0.0273 3.91-0.0116 0.999-0.0232 2-0.0352 3.03h-10c-0.054-2.1-0.0928-4.21-0.125-6.31-0.0232-1.17-0.0464-2.34-0.0703-3.55 0.195-3.14 0.195-3.14 2.2-6.14z" fill="#040507"/>
<path transform="translate(714 740)" d="m0 0c2.56 0.375 2.56 0.375 4.21 2.01 1.74 3.05 1.65 5.13 1.54 8.62-0.0271 1.08-0.0541 2.16-0.082 3.27-0.0348 0.82-0.0696 1.64-0.105 2.48-6.05 0.195-6.05 0.195-8 0-2-2-2-2-2.27-4.75 0.00516-1.07 0.0103-2.14 0.0156-3.25-0.00516-1.07-0.0103-2.14-0.0156-3.25 0.347-3.59 1.11-4.57 4.7-5.12z" fill="#050608"/>
<path transform="translate(1411,757)" d="m0 0c-0.0116 0.652-0.0232 1.3-0.0352 1.98-0.0496 4.8 0.041 9.3 1.04 14h-7c-1.58-2.64-2.04-4.37-2.38-7.5-0.695-3.89-1.61-5.07-4.62-7.5 4.39-0.857 8.53-1.09 13-1z" fill="#FAFBFC"/>
<path transform="translate(882,845)" d="m0 0c2.88 0.312 2.88 0.312 6 1 2 3 2 3 1.81 4.75-0.268 0.742-0.536 1.49-0.812 2.25-0.65 1.83-0.65 1.83-1.31 3.69-1.69 3.31-1.69 3.31-3.88 4.25-0.598 0.0206-1.2 0.0412-1.81 0.0625-2.12-2-2.12-2-4-5 0.233-4.27 1.65-7.47 4-11z" fill="#040507"/>
<path transform="translate(228 819)" d="m0 0c2.44 0.438 2.44 0.438 4.44 2.44-0.31 5.26-1.8 9.3-4 14-2.31-0.66-4.62-1.32-7-2 0.851-13.5 0.851-13.5 6.56-14.4z" fill="#050608"/>
<path transform="translate(741 490)" d="m0 0c0.866 0.557 0.866 0.557 1.75 1.12v2c1.28 0.0374 2.55 0.0748 3.87 0.113 1.67 0.0656 3.34 0.132 5.01 0.199 0.842 0.0226 1.68 0.0451 2.55 0.0684 1.21 0.0532 1.21 0.0532 2.44 0.107 0.744 0.0262 1.49 0.0524 2.25 0.0793 1.88 0.432 1.88 0.432 3.88 3.43-0.33 0.66-0.66 1.32-1 2-3.2 0-6.08-0.013-9.25-0.5-3.53-0.571-3.53-0.571-6.25-0.438-3.37-0.0842-6.3-1.06-9.5-2.06v-2h-2v-3c3.45-2.22 3.45-2.22 6.25-1.12z" fill="#D0D1D2"/>
<path transform="translate(948,847)" d="m0 0c0.66 0.33 1.32 0.66 2 1 0.0248 4.89 0.0429 9.79 0.0549 14.7 0.00502 1.66 0.0118 3.33 0.0205 4.99 0.0122 2.4 0.0178 4.79 0.0222 7.19 0.00516 0.74 0.0103 1.48 0.0156 2.24 4.06e-4 3.76-0.206 7.24-1.11 10.9-0.66-0.33-1.32-0.66-2-1-0.0246-5.54-0.0428-11.1-0.0549-16.6-0.00504-1.88-0.0119-3.77-0.0205-5.65-0.0121-2.7-0.0178-5.41-0.0222-8.11-0.00516-0.848-0.0103-1.7-0.0156-2.57-1.95e-4 -2.02 0.0512-4.04 0.113-6.06l1-1z" fill="#F9FAFB"/>
<path transform="translate(755,407)" d="m0 0h3c3 4.22 3 4.22 3 7 0.619-0.165 1.24-0.33 1.88-0.5 2.12-0.5 2.12-0.5 4.12-0.5 0.639-0.99 1.28-1.98 1.94-3 0.681-0.99 1.36-1.98 2.06-3h3c-0.33 1.32-0.66 2.64-1 4h-2v3l2 1-2 1c0.969 0.289 1.94 0.577 2.94 0.875 3.06 1.12 3.06 1.12 4.06 3.12-1.46 0.081-2.92 0.139-4.38 0.188-0.812 0.0348-1.62 0.0696-2.46 0.105-0.714-0.0967-1.43-0.193-2.16-0.293-0.66-0.99-1.32-1.98-2-3-0.557 0.227-1.11 0.454-1.69 0.688-3.25 0.439-4.67-0.878-7.31-2.69l-2-1c-0.407-2.32-0.744-4.66-1-7z" fill="#07080A"/>
<path transform="translate(752,565)" d="m0 0h2v35c-0.66-0.33-1.32-0.66-2-1v-13h-2c-0.0579-3.12-0.0936-6.25-0.125-9.38-0.0168-0.889-0.0335-1.78-0.0508-2.7-0.00645-0.851-0.0129-1.7-0.0195-2.58-0.0105-0.786-0.0209-1.57-0.0317-2.38 0.227-1.97 0.227-1.97 2.23-3.97z" fill="#B1B2B4"/>
<path transform="translate(233,798)" d="m0 0c2.97 0.33 5.94 0.66 9 1-0.66 1.32-1.32 2.64-2 4-0.774 2.09-1.5 4.19-2.22 6.29-0.781 1.71-0.781 1.71-2.78 2.71v-3c-0.959-0.155-0.959-0.155-1.94-0.312-0.681-0.227-1.36-0.454-2.06-0.688-1.39-4.18 0.177-6.13 2-10z" fill="#040507"/>
<path transform="translate(710,500)" d="m0 0c-3.51 4.23-7.58 5.79-12.6 7.75-1.15 0.474-1.15 0.474-2.33 0.957-5.69 2.29-5.69 2.29-9.11 2.29 1.3-2.6 2.8-4.11 5-6 1.66-0.356 3.33-0.692 5-1 0.66-0.99 1.32-1.98 2-3 2.06-1.02 2.06-1.02 4.44-1.81 1.17-0.412 1.17-0.412 2.37-0.832 2.19-0.355 2.19-0.355 5.19 1.64z" fill="#28292B"/>
<path transform="translate(654,854)" d="m0 0c2 1 2 1 2.61 2.78 1.42 8.14-0.0705 16.2-1.61 24.2h-1c-0.876-6.02-1.11-11.9-1.12-18-0.00451-0.766-0.00902-1.53-0.0137-2.32 0.0149-5.55 0.0149-5.55 1.14-6.68z" fill="#FBFCFD"/>
<path transform="translate(675,636)" d="m0 0c1.5 1.31 1.5 1.31 3 3 1.05 0.712 1.05 0.712 2.12 1.44 2.26 1.88 2.45 2.7 2.88 5.56-0.34 2.36-0.34 2.36-0.938 4.75-0.195 0.799-0.389 1.6-0.59 2.42-0.156 0.603-0.312 1.21-0.473 1.83-0.66-0.33-1.32-0.66-2-1-0.379-2.4-0.379-2.4-0.562-5.38-0.204-3.16-0.431-5.61-1.44-8.62h-9c0.33-0.99 0.66-1.98 1-3 2-1 2-1 6-1z" fill="#606162"/>
<path transform="translate(765,476)" d="m0 0h-2c-0.33 0.66-0.66 1.32-1 2-0.99 0.33-1.98 0.66-3 1-0.33 0.99-0.66 1.98-1 3-4.33 2.18-9.14 3.47-14 3 1.26-2.53 2.65-3.46 5-5 1.33-0.342 2.66-0.678 4-1 0.33-0.66 0.66-1.32 1-2 1.74-0.668 1.74-0.668 3.88-1.19 1.05-0.269 1.05-0.269 2.12-0.543 2.01-0.27 2.01-0.27 5.01 0.73z" fill="#494A4C"/>
<path transform="translate(1452 772)" d="m0 0c0.976-0.0122 1.95-0.0245 2.96-0.0371 1.4-0.0029 1.4-0.0029 2.82-0.00586 0.857-0.00411 1.71-0.00822 2.6-0.0125 2.12 0.243 2.12 0.243 4.12 2.24-1 1-1 1-3.32 1.11-1-0.00524-2-0.0105-3.03-0.0159-1.08-0.00322-2.16-0.00645-3.27-0.00977-1.14-0.00838-2.27-0.0168-3.44-0.0254-1.14-0.00451-2.28-0.00902-3.46-0.0137-2.83-0.0118-5.65-0.0283-8.48-0.0488v-2c3.77-1.89 8.35-1.18 12.5-1.19z" fill="#040507"/>
<path transform="translate(1347,840)" d="m0 0c2.56-0.25 2.56-0.25 5 0 1 1 1 1 1.19 3.31-0.193 2.77-0.789 4.33-2.19 6.69-2.31-0.66-4.62-1.32-7-2 0.547-3.37 1.05-5.08 3-8z" fill="#040507"/>
<path transform="translate(1434,739)" d="m0 0h1c0.33 5.94 0.66 11.9 1 18 6.6 0.66 13.2 1.32 20 2v1c-6.7 0.798-13.3 1.13-20 1-1.67-2.92-2.24-4.98-2.2-8.33 0.00645-0.799 0.0129-1.6 0.0195-2.42 0.0168-0.825 0.0335-1.65 0.0508-2.5 0.00902-0.84 0.018-1.68 0.0273-2.55 0.0235-2.07 0.0594-4.14 0.0977-6.2z" fill="#FBFCFD"/>
<path transform="translate(1408,741)" d="m0 0c0.66 1.32 1.32 2.64 2 4-2.35 2.72-4.62 3.81-8 5-2-2-2-2-2.31-4.5 0.103-0.825 0.206-1.65 0.312-2.5 3.23-2.15 4.28-2.2 8-2z" fill="#050608"/>
<path transform="translate(126,709)" d="m0 0h28v1c-8.58 0.33-17.2 0.66-26 1 0.33 0.99 0.66 1.98 1 3 0.154 4.17-0.0161 7.94-1 12h-1c-1.02-5.89-1-10.8-1-17z" fill="#FAFBFC"/>
<path transform="translate(716,493)" d="m0 0h5c0.33 1.32 0.66 2.64 1 4-1.6 0.699-3.2 1.38-4.81 2.06-0.893 0.383-1.79 0.766-2.71 1.16-2.48 0.777-2.48 0.777-5.48-0.223 0-3 0-3 2-5 2.62-0.125 2.62-0.125 5 0v-2z" fill="#0F1012"/>
<path transform="translate(669,460)" d="m0 0c2.07 3.11 2.29 4 2.31 7.56 0.0251 1.18 0.0251 1.18 0.0508 2.38-0.12 0.679-0.24 1.36-0.363 2.06-0.99 0.66-1.98 1.32-3 2-0.0735-1.03-0.0735-1.03-0.148-2.08-0.112-1.35-0.112-1.35-0.227-2.73-0.0696-0.893-0.139-1.79-0.211-2.71-0.281-2.72-0.281-2.72-2.41-5.48-2.1-0.44-2.1-0.44-4.44-0.312-1.17 0.0058-1.17 0.0058-2.37 0.0117-2.48 0.178-2.48 0.178-5.19 2.3 0.562-1.94 0.562-1.94 2-4 5.18-1.42 9.03-0.95 14 1z" fill="#DEDFE0"/>
<path transform="translate(956,622)" d="m0 0c3.06 2.56 3.06 2.56 5 5-0.33 0.66-0.66 1.32-1 2-1.5-1.38-1.5-1.38-3-3v-2c-6.52-0.619-6.52-0.619-12.4 1.56-1.96 3.05-3.26 6.05-4.56 9.44h-1c-0.625-5.12 0.689-7.6 3.61-11.6 3.54-3.62 8.91-2.6 13.4-1.42z" fill="#DEDFE0"/>
<path transform="translate(1136 803)" d="m0 0c1.86 0.00967 1.86 0.00967 3.76 0.0195 3.12 0.168 3.12 0.168 5.12 1.17v2c0.99 0.33 1.98 0.66 3 1-3.11 0.968-5.35 0.981-8.55 0.441-0.844-0.139-1.69-0.277-2.56-0.42-0.873-0.151-1.75-0.303-2.64-0.459-0.888-0.148-1.78-0.295-2.69-0.447-2.19-0.365-4.37-0.737-6.56-1.12 3.85-2.12 6.71-2.24 11.1-2.19z" fill="#FBFCFD"/>
<path transform="translate(864,341)" d="m0 0c4.75 0.875 4.75 0.875 7 2v2c0.99 0.33 1.98 0.66 3 1 0.762 4.32 1.16 7.74 0 12h-1c-0.33-3.63-0.66-7.26-1-11-3.3-0.66-6.6-1.32-10-2 0.66-1.32 1.32-2.64 2-4z" fill="#0C0D0E"/>
<path transform="translate(252 758)" d="m0 0c0.784 0.0412 1.57 0.0825 2.38 0.125 1.12 1.62 1.12 1.62 2 4-0.875 3.25-0.875 3.25-2 6-0.33-0.99-0.66-1.98-1-3h-5c-0.625-2.38-0.625-2.38-1-5 2-2 2-2 4.62-2.12z" fill="#050608"/>
<path transform="translate(842,725)" d="m0 0h6v3c0.619 0.247 1.24 0.495 1.88 0.75 2.48 1.46 3.08 2.63 4.12 5.25-1.73 0.703-1.73 0.703-4 1-2.14-1.33-2.14-1.33-4.25-3.25-0.706-0.624-1.41-1.25-2.14-1.89-1.61-1.86-1.61-1.86-1.61-4.86z" fill="#D6D7D8"/>
<path transform="translate(271,716)" d="m0 0c1.27 2.73 1.04 3.87 0.0625 6.75-0.351 0.742-0.701 1.49-1.06 2.25-0.66-0.66-1.32-1.32-2-2-1.65-0.707-3.32-1.38-5-2 0.33-1.65 0.66-3.3 1-5 3.01-0.934 3.87-1.04 7 0z" fill="#050608"/>
<path transform="translate(666,640)" d="m0 0c0.66 0.33 1.32 0.66 2 1l-1 1c-0.0991 1.79-0.13 3.58-0.125 5.38-0.00258 0.977-0.00516 1.95-0.00781 2.96 0.0185 2.77 0.0185 2.77 1.13 5.66-2.38-0.562-2.38-0.562-5-2-1.58-3.65-2.27-5.91-1.31-9.81 1.31-2.19 1.31-2.19 4.31-4.19z" fill="#CACBCC"/>
<path transform="translate(150,743)" d="m0 0c5.96 5.8 5.96 5.8 6.1 9.6-0.0116 0.998-0.0232 2-0.0352 3.02-0.00902 1-0.018 2.01-0.0273 3.04-0.0116 0.771-0.0232 1.54-0.0352 2.34-1.55-2.33-2.76-4.52-4-7-0.66-0.99-1.32-1.98-2-3-0.258-2.69-0.089-5.29 0-8z" fill="#050608"/>
<path transform="translate(983,560)" d="m0 0c0.99 0.33 1.98 0.66 3 1 0.492 7.38 0.492 7.38-2 10.5-0.66 0.495-1.32 0.99-2 1.5-1.61-4.08-2.41-6.77-1-11l2-2z" fill="#050608"/>
<path transform="translate(749,494)" d="m0 0c1.96-0.0808 3.92-0.139 5.88-0.188 1.64-0.0522 1.64-0.0522 3.3-0.105 0.931 0.0967 1.86 0.193 2.82 0.293 0.66 0.99 1.32 1.98 2 3-0.33 0.66-0.66 1.32-1 2-4.48 0-8.57-0.208-13-1-0.33-0.66-0.66-1.32-1-2 0.33-0.66 0.66-1.32 1-2z" fill="#8C8D8E"/>
<path transform="translate(288,741)" d="m0 0c1.34 3.73 0.658 6.41-0.312 10.2-0.264 1.07-0.529 2.13-0.801 3.23-0.887 2.58-0.887 2.58-2.89 3.58-1.49-2.37-2.04-3.61-1.75-6.44 0.762-2.6 1.68-5.07 2.75-7.56h3v-3z" fill="#050608"/>
<path transform="translate(1094,459)" d="m0 0c1.94-0.0811 3.87-0.139 5.81-0.188 1.08-0.0348 2.16-0.0696 3.27-0.105 2.92 0.293 2.92 0.293 4.76 1.59 1.86 2.74 1.93 5.46 2.16 8.71-0.33 0.99-0.66 1.98-1 3h-2c-1.61-3.21-1.06-6.44-1-10-2.43-1.22-4.42-1.32-7.12-1.56-0.91-0.0838-1.82-0.168-2.76-0.254-0.699-0.0606-1.4-0.121-2.12-0.184v-1z" fill="#DEDFE0"/>
<path transform="translate(947,887)" d="m0 0c5.28 0.33 10.6 0.66 16 1 0.33 0.99 0.66 1.98 1 3h-16c-0.33-1.32-0.66-2.64-1-4z" fill="#040507"/>
<path transform="translate(242 780)" d="m0 0c2.5 0.125 2.5 0.125 3.5 1.12 0.0409 2.33 0.0424 4.67 0 7h-2v-2c-0.959 0.278-0.959 0.278-1.94 0.562-0.681 0.144-1.36 0.289-2.06 0.438-1-1-1-1-1.12-3.5 0.168-3.37 0.257-3.46 3.62-3.62z" fill="#050608"/>
<path transform="translate(755,464)" d="m0 0c2.62-0.188 2.62-0.188 5 0 0.931 2.61 1.15 3.64 0.0625 6.25-0.526 0.866-0.526 0.866-1.06 1.75-2.44-0.812-2.44-0.812-5-2-0.33-0.99-0.66-1.98-1-3 0.66-0.99 1.32-1.98 2-3z" fill="#050608"/>
<path transform="translate(907,672)" d="m0 0c-1.81 1.06-1.81 1.06-4 2-0.99-0.33-1.98-0.66-3-1v3c-2.31 0.66-4.62 1.32-7 2v-2l-2-2c6.02-2.69 9.53-3.27 16-2z" fill="#050608"/>
<path transform="translate(852,732)" d="m0 0c6.63 1.6 6.63 1.6 8.39 3.52 2.09 1.93 3.49 1.96 6.29 2.17 0.808 0.0657 1.62 0.131 2.45 0.199 0.615 0.0374 1.23 0.0748 1.86 0.113v1c-11.5 0.185-11.5 0.185-17-1-0.33-0.99-0.66-1.98-1-3 0.33-0.66 0.66-1.32 1-2-0.66-0.33-1.32-0.66-2-1z" fill="#6C6D6E"/>
<path transform="translate(1036,641)" d="m0 0c3.74 3.74 2.97 9.93 3 15-0.413 2.58-1.04 4.56-2 7-0.66-0.33-1.32-0.66-2-1 0.495-1.49 0.495-1.49 1-3 0.28-4.71 0.181-9.4-0.562-14.1-0.144-0.969-0.289-1.94-0.438-2.94 0.33-0.33 0.66-0.66 1-1z" fill="#DEDFE0"/>
<path transform="translate(526,772)" d="m0 0c0.99 1.32 1.98 2.64 3 4 0.66-0.33 1.32-0.66 2-1-0.66 1.98-1.32 3.96-2 6h-6l3-9z" fill="#FBFCFD"/>
<path transform="translate(793,772)" d="m0 0c1.67-0.0427 3.33-0.0406 5 0 1 1 1 1 1.25 3.44-0.0825 0.846-0.165 1.69-0.25 2.56-0.99 0.66-1.98 1.32-3 2-0.33-0.66-0.66-1.32-1-2-0.99-0.33-1.98-0.66-3-1 0.33-1.65 0.66-3.3 1-5z" fill="#050608"/>
<path transform="translate(1093,473)" d="m0 0c1.6 0.31 3.21 0.623 4.81 0.938 0.893 0.174 1.79 0.348 2.71 0.527 2.48 0.535 2.48 0.535 5.48 1.54-5.25 3.05-5.25 3.05-8.69 2.81-2.31-0.812-2.31-0.812-5.31-2.81 0.33-0.99 0.66-1.98 1-3z" fill="#DEDFE0"/>
<path transform="translate(772,474)" d="m0 0v2c-1.6 0.699-3.2 1.38-4.81 2.06-0.893 0.383-1.79 0.766-2.71 1.16-2.48 0.777-2.48 0.777-5.48-0.223 1-2 1-2 4-3-0.33-0.66-0.66-1.32-1-2 3.69-1.23 6.21-0.644 10 0z" fill="#050608"/>
<path transform="translate(1134 783)" d="m0 0c1.19 0.00902 2.38 0.018 3.6 0.0273 0.915 0.0116 1.83 0.0232 2.77 0.0352-1 2-1 2-2.73 2.62-2.55 0.426-4.93 0.475-7.52 0.441-0.892-0.00902-1.78-0.018-2.7-0.0273-0.675-0.0116-1.35-0.0232-2.05-0.0352v-2c2.88-1.44 5.42-1.09 8.62-1.06z" fill="#E5E6E7"/>
<path transform="translate(653,473)" d="m0 0c1.96 0.309 3.92 0.622 5.88 0.938 1.09 0.174 2.18 0.348 3.3 0.527 2.82 0.535 2.82 0.535 4.82 1.54-4.25 3.04-4.25 3.04-7.56 2.88-2.63-0.943-4.39-1.98-6.44-3.88v-2z" fill="#DEDFE0"/>
<path transform="translate(856,346)" d="m0 0 2 1c0.414 2.72 0.414 2.72 0.625 6.06 0.0748 1.1 0.15 2.21 0.227 3.35 0.049 0.855 0.098 1.71 0.148 2.59-1.65-0.99-3.3-1.98-5-3 0.14-1.48 0.288-2.96 0.438-4.44 0.0812-0.824 0.162-1.65 0.246-2.5 0.316-2.07 0.316-2.07 1.32-3.07z" fill="#C0C1C2"/>
<path transform="translate(673,756)" d="m0 0c0.66 1.32 1.32 2.64 2 4h-11c0.33-0.99 0.66-1.98 1-3 2.71-1.35 5.01-1.07 8-1z" fill="#DEDFE0"/>
<path transform="translate(857 424)" d="m0 0c1.21 0.0309 1.21 0.0309 2.44 0.0625-0.875 5.75-0.875 5.75-2 8-1.32-0.66-2.64-1.32-4-2-0.0427-1.67-0.0406-3.33 0-5 1-1 1-1 3.56-1.06z" fill="#050608"/>
<path transform="translate(345,786)" d="m0 0h5v5c-2.49 0.687-4.38 1-7 1 0.66-1.98 1.32-3.96 2-6z" fill="#040507"/>
<path transform="translate(703,489)" d="m0 0v7c-2.31-0.33-4.62-0.66-7-1 0.375-2.44 0.375-2.44 1-5 2-1 2-1 6-1z" fill="#050608"/>
<path transform="translate(242,802)" d="m0 0c1.09 2.83 0.961 4.17 0.25 7.19-0.619 1.39-0.619 1.39-1.25 2.81-0.99 0.33-1.98 0.66-3 1 0.33-3.3 0.66-6.6 1-10 0.66 0.33 1.32 0.66 2 1 0.33-0.66 0.66-1.32 1-2z" fill="#FAFBFC"/>
<path transform="translate(674,718)" d="m0 0h1v13h-5c0.66-2.64 1.32-5.28 2-8h2v-5z" fill="#FBFCFD"/>
<path transform="translate(651,462)" d="m0 0 2 1v10h-2c-2.15-3.23-2.2-4.28-2-8h2v-3z" fill="#48494B"/>
<path transform="translate(1032,662)" d="m0 0c0.75 1.75 0.75 1.75 1 4-1.94 2.25-1.94 2.25-4 4-0.99-0.33-1.98-0.66-3-1-0.33 0.66-0.66 1.32-1 2-0.33-0.99-0.66-1.98-1-3 0.949-0.619 1.9-1.24 2.88-1.88 3.07-1.94 3.07-1.94 5.12-4.12z" fill="#DEDFE0"/>
<path transform="translate(1039,519)" d="m0 0c-0.928 0.598-1.86 1.2-2.81 1.81-3.07 1.92-3.07 1.92-4.69 3.88-2.25 1.97-4.6 1.99-7.5 2.31 9.13-9.96 9.13-9.96 15-8z" fill="#DEDFE0"/>
<path transform="translate(682,508)" d="m0 0h7c-0.99 1.49-0.99 1.49-2 3 1.32 0.99 2.64 1.98 4 3h-6c-0.33-0.66-0.66-1.32-1-2-2.53-0.656-2.53-0.656-5-1 0.99-0.33 1.98-0.66 3-1v-2z" fill="#DEDFE0"/>
<path transform="translate(1091,461)" d="m0 0h2c-0.33 4.29-0.66 8.58-1 13-1.32-1.32-2.64-2.64-4-4 0.159-3.9 0.821-5.73 3-9z" fill="#DEDFE0"/>
<path transform="translate(759,415)" d="m0 0c0.99 0.33 1.98 0.66 3 1 1.26 4.29 0.63 6.88-1 11-0.33-1.32-0.66-2.64-1-4h-2v-3h2c-0.33-1.65-0.66-3.3-1-5z" fill="#DEDFE0"/>
<path transform="translate(260,753)" d="m0 0h1c0.293 4.99 0.0589 7.96-3 12h-1c-0.125-6.62-0.125-6.62 1-10h2v-2z" fill="#F9FAFB"/>
<path transform="translate(127,711)" d="m0 0c2.86 4.29 2.35 7.96 1.5 12.9-0.165 0.681-0.33 1.36-0.5 2.06h-1c-0.194-2.31-0.38-4.62-0.562-6.94-0.157-1.93-0.157-1.93-0.316-3.9-0.04-1.04-0.0799-2.09-0.121-3.16 0.33-0.33 0.66-0.66 1-1z" fill="#FBFCFD"/>
<path transform="translate(765,416)" d="m0 0c3 1 3 1 4 3 1.9 0.465 1.9 0.465 4.06 0.625 1.3 0.124 2.6 0.248 3.94 0.375v1h-9v5c-0.99-0.66-1.98-1.32-3-2h2v-4h-2v-4z" fill="#DEDFE0"/>
<path transform="translate(755,407)" d="m0 0h3c1.75 2.31 1.75 2.31 3 5-0.33 0.99-0.66 1.98-1 3-1.32-0.33-2.64-0.66-4-1-0.33-2.31-0.66-4.62-1-7z" fill="#0C0D0F"/>
<path transform="translate(845,506)" d="m0 0v2c0.66 0.33 1.32 0.66 2 1-1.62 0.054-3.25 0.0928-4.88 0.125-0.905 0.0232-1.81 0.0464-2.74 0.0703-2.38-0.195-2.38-0.195-4.38-2.2 3.21-1.61 6.44-1.06 10-1z" fill="#050608"/>
<path transform="translate(1096,456)" d="m0 0c2.81-0.188 2.81-0.188 6 0 0.99 0.99 1.98 1.98 3 3h-11c-0.33 0.66-0.66 1.32-1 2v-3h3v-2z" fill="#0C0D0F"/>
<path transform="translate(757,875)" d="m0 0c5.54-0.369 5.54-0.369 7.88 1.5 0.371 0.495 0.742 0.99 1.12 1.5-1 1-1 1-4.06 1.06-0.969-0.0206-1.94-0.0412-2.94-0.0625-0.66-1.32-1.32-2.64-2-4z" fill="#FBFCFD"/>
<path transform="translate(675,636)" d="m0 0c0.99 1.32 1.98 2.64 3 4h-10c0.33-0.99 0.66-1.98 1-3 2-1 2-1 6-1z" fill="#DEDFE0"/>
<path transform="translate(1078,600)" d="m0 0h3c-0.333 1.33-0.667 2.67-1 4-0.124 0.722-0.247 1.44-0.375 2.19-0.206 0.598-0.412 1.2-0.625 1.81-0.99 0.33-1.98 0.66-3 1v-2c-0.66-0.33-1.32-0.66-2-1h2c0.217-0.928 0.217-0.928 0.438-1.88 0.562-2.12 0.562-2.12 1.56-4.12z" fill="#040507"/>
<path transform="translate(775,456)" d="m0 0h5c-0.33 1.98-0.66 3.96-1 6h-5c0.33-1.98 0.66-3.96 1-6z" fill="#050608"/>
<path transform="translate(876,683)" d="m0 0c2.31 1.94 2.31 1.94 4 4h-10c0.33-0.99 0.66-1.98 1-3 2.25-0.75 2.25-0.75 5-1z" fill="#DEDFE0"/>
<path transform="translate(871,345)" d="m0 0c0.99 0.33 1.98 0.66 3 1 0.762 4.32 1.16 7.74 0 12h-1c-0.66-4.29-1.32-8.58-2-13z" fill="#D5D6D7"/>
</svg>
